<svg width="1117" height="206" viewBox="0 0 1117 206" fill="none" xmlns="http://www.w3.org/2000/svg">
<g id="aboutUsDiamonds">
<g id="Group 121">
<path id="Vector 18 (Stroke)" fill-rule="evenodd" clip-rule="evenodd" d="M37.7071 1L74.4142 37.7071H1L37.7071 1ZM3.41421 36.7071H72L37.7071 2.41421L3.41421 36.7071Z" fill="black" stroke="black" stroke-width="0.5"/>
<g id="Group 116">
<path id="Vector 19 (Stroke)" fill-rule="evenodd" clip-rule="evenodd" d="M243.414 1L280.121 37.7071H206.707L243.414 1ZM209.121 36.7071H277.707L243.414 2.41421L209.121 36.7071Z" fill="black" stroke="black" stroke-width="0.5"/>
<path id="Vector 20 (Stroke)" fill-rule="evenodd" clip-rule="evenodd" d="M314.414 1L351.121 37.7071H277.707L314.414 1ZM280.121 36.7071H348.707L314.414 2.41421L280.121 36.7071Z" fill="black" stroke="black" stroke-width="0.5"/>
<path id="Vector 21 (Stroke)" fill-rule="evenodd" clip-rule="evenodd" d="M385.414 1L422.121 37.7071H348.707L385.414 1ZM351.121 36.7071H419.707L385.414 2.41421L351.121 36.7071Z" fill="black" stroke="black" stroke-width="0.5"/>
<path id="Vector 22 (Stroke)" fill-rule="evenodd" clip-rule="evenodd" d="M385.414 2.00711H243.414V1.00711H385.414V2.00711Z" fill="black" stroke="black" stroke-width="0.5"/>
</g>
<g id="Group 118">
<g id="Group 117">
<path id="Vector 19 (Stroke)_2" fill-rule="evenodd" clip-rule="evenodd" d="M590.414 1L627.121 37.7071H553.707L590.414 1ZM556.121 36.7071H624.707L590.414 2.41421L556.121 36.7071Z" fill="black" stroke="black" stroke-width="0.5"/>
<path id="Vector 20 (Stroke)_2" fill-rule="evenodd" clip-rule="evenodd" d="M661.414 1L698.121 37.7071H624.707L661.414 1ZM627.121 36.7071H695.707L661.414 2.41421L627.121 36.7071Z" fill="black" stroke="black" stroke-width="0.5"/>
<path id="Vector 21 (Stroke)_2" fill-rule="evenodd" clip-rule="evenodd" d="M732.414 1L769.121 37.7071H695.707L732.414 1ZM698.121 36.7071H766.707L732.414 2.41421L698.121 36.7071Z" fill="black" stroke="black" stroke-width="0.5"/>
<path id="Vector 22 (Stroke)_2" fill-rule="evenodd" clip-rule="evenodd" d="M732.414 2.00711H590.414V1.00711H732.414V2.00711Z" fill="black" stroke="black" stroke-width="0.5"/>
</g>
<path id="Vector 23 (Stroke)" fill-rule="evenodd" clip-rule="evenodd" d="M661.414 202.102L626.403 37.4031L625.425 37.6111L660.925 204.611H661.903L697.403 37.6111L696.425 37.4031L661.414 202.102Z" fill="black" stroke="black" stroke-width="0.5"/>
</g>
<g id="Group 120">
<g id="Group 119">
<g id="Group 117_2">
<path id="Vector 19 (Stroke)_3" fill-rule="evenodd" clip-rule="evenodd" d="M937.414 1L974.121 37.7071H900.707L937.414 1ZM903.121 36.7071H971.707L937.414 2.41421L903.121 36.7071Z" fill="black" stroke="black" stroke-width="0.5"/>
<path id="Vector 20 (Stroke)_3" fill-rule="evenodd" clip-rule="evenodd" d="M1008.41 1L1045.12 37.7071H971.707L1008.41 1ZM974.121 36.7071H1042.71L1008.41 2.41421L974.121 36.7071Z" fill="black" stroke="black" stroke-width="0.5"/>
<path id="Vector 21 (Stroke)_3" fill-rule="evenodd" clip-rule="evenodd" d="M1079.41 1L1116.12 37.7071H1042.71L1079.41 1ZM1045.12 36.7071H1113.71L1079.41 2.41421L1045.12 36.7071Z" fill="black" stroke="black" stroke-width="0.5"/>
<path id="Vector 22 (Stroke)_3" fill-rule="evenodd" clip-rule="evenodd" d="M1079.41 2.00711H937.414V1.00711H1079.41V2.00711Z" fill="black" stroke="black" stroke-width="0.5"/>
</g>
<path id="Vector 23 (Stroke)_2" fill-rule="evenodd" clip-rule="evenodd" d="M1008.41 201.609L973.403 37.4028L972.425 37.6114L1007.93 204.111H1008.9L1044.4 37.6114L1043.43 37.4028L1008.41 201.609Z" fill="black" stroke="black" stroke-width="0.5"/>
</g>
<path id="Vector 24 (Stroke)" fill-rule="evenodd" clip-rule="evenodd" d="M900.714 37.6978L901.555 37.1564L1008.41 203.084L1115.27 37.1664L1116.11 37.7078L1008.41 204.931L900.714 37.6978Z" fill="black" stroke="black" stroke-width="0.5"/>
</g>
</g>
</g>
</svg>
