<?xml version="1.0" encoding="UTF-8" standalone="no"?>
<!-- Created with Inkscape (http://www.inkscape.org/) -->

<svg
   version="1.1"
   id="svg433"
   width="2060.8467"
   height="1855.5836"
   viewBox="0 0 2060.8467 1855.5836"
   sodipodi:docname="VD_black.png"
   xmlns:inkscape="http://www.inkscape.org/namespaces/inkscape"
   xmlns:sodipodi="http://sodipodi.sourceforge.net/DTD/sodipodi-0.dtd"
   xmlns="http://www.w3.org/2000/svg"
   xmlns:svg="http://www.w3.org/2000/svg">
  <defs
     id="defs437" />
  <sodipodi:namedview
     id="namedview435"
     pagecolor="#ffffff"
     bordercolor="#666666"
     borderopacity="1.0"
     inkscape:showpageshadow="2"
     inkscape:pageopacity="0.0"
     inkscape:pagecheckerboard="0"
     inkscape:deskcolor="#d1d1d1"
     showgrid="false" />
  <g
     inkscape:groupmode="layer"
     inkscape:label="Image"
     id="g439"
     transform="translate(-345.36206,-508.2855)">
    <path
       style="fill:#000000;stroke-width:0.219719"
       d="m 1352.0793,2363.5645 c 0.3146,-0.1884 3.4967,-1.8361 7.0711,-3.6614 13.244,-6.7631 21.3535,-11.96 29.8645,-19.1384 3.2382,-2.7311 9.7708,-9.2076 12.1168,-12.0127 7.1115,-8.503 12.3546,-18.1309 13.909,-25.541 1.3143,-6.2658 2.1974,-17.8925 2.5338,-33.3633 0.2654,-12.1994 0.6907,-18.4449 1.465,-21.5128 1.8159,-7.1945 42.3112,-134.7008 73.0611,-230.0456 15.2371,-47.2447 20.3501,-62.651 20.3813,-61.4114 0.01,0.423 0.1162,3.1914 0.2347,6.1521 0.925,23.1274 10.7307,326.7868 11.6839,361.822 l 0.2705,9.9423 h 10.4467 c 41.3824,0.01 241.7437,-0.4886 268.2869,-0.6674 54.8498,-0.3696 60.5928,-0.6413 83.603,-3.9564 25.5721,-3.6841 53.9053,-9.9958 76.9016,-17.1312 43.3958,-13.465 82.9562,-32.1263 121.1828,-57.1638 14.6878,-9.6203 32.3457,-22.7195 46.0232,-34.1417 7.8153,-6.5266 16.1419,-14.3507 29.5558,-27.7723 17.3619,-17.372 25.1315,-25.8622 35.2962,-38.5701 27.6163,-34.5258 49.9663,-70.9951 67.192,-109.6397 20.2792,-45.4947 33.4849,-93.8501 40.203,-147.2116 2.2104,-17.5566 3.1548,-40.7307 2.9105,-71.4086 -0.1223,-15.3291 -0.2442,-18.9082 -0.9292,-27.2452 -4.2186,-51.3386 -15.3512,-99.2433 -33.7425,-145.1982 -17.7622,-44.3827 -42.6264,-87.0398 -72.5467,-124.4619 -51.7455,-64.719 -117.5461,-114.9513 -193.838,-147.9762 -24.2021,-10.4765 -50.8886,-19.4939 -77.1213,-26.0592 -27.0251,-6.7636 -58.4282,-11.7491 -83.8227,-13.3074 -19.988,-1.2265 -26.1183,-1.272 -184.9483,-1.3735 l -147.0468,-0.094 0.01,6.5502 c 0.01,3.6026 0.1454,39.03 0.3153,78.7277 l 0.3091,72.1776 -33.5074,90.5242 c -18.4291,49.7883 -41.3827,111.8017 -51.0081,137.8077 -9.6253,26.0059 -17.5352,47.249 -17.5774,47.2068 -0.043,-0.043 -0.2149,-46.1865 -0.3839,-102.5428 -0.589,-196.5181 -0.7953,-221.5836 -1.9785,-240.3397 -0.5247,-8.3182 -0.9334,-12.1804 -2.6497,-25.0479 -3.2768,-24.5655 -6.7979,-38.4911 -12.7214,-50.312 -4.8486,-9.6759 -10.2295,-15.7496 -21.3145,-24.0584 -8.7558,-6.5631 -16.0716,-11.1252 -26.991,-16.8315 l -4.7995,-2.5082 23.146,-0.1462 c 12.7303,-0.08 129.6821,-0.1793 259.893,-0.2197 184.387,-0.057 240.3916,-0.012 253.2259,0.2041 34.0827,0.5743 44.0557,1.0916 62.7298,3.2537 23.1711,2.6829 44.2209,6.5347 67.2623,12.3083 58.7229,14.7143 115.2422,39.6408 164.7475,72.6583 88.2653,58.8683 156.8508,142.3989 196.6568,239.5094 19.9325,48.6269 32.8653,102.2996 36.9094,153.1769 2.6169,32.9217 2.1067,73.4892 -1.3247,105.3552 -4.6331,43.0237 -16.2297,91.4129 -31.6203,131.9411 -11.0233,29.0273 -24.3025,56.5585 -39.9533,82.834 -14.1672,23.7843 -31.3213,48.0043 -48.8643,68.9917 -12.5463,15.0096 -47.0713,49.4951 -62.4855,62.414 -16.549,13.87 -37.9339,29.3466 -57.1675,41.3731 -21.5456,13.4721 -45.5933,26.0545 -69.0095,36.1074 -36.8587,15.824 -76.1569,27.3674 -115.7604,34.0035 -5.5647,0.9324 -18.5911,2.8892 -25.5483,3.8378 -13.1573,1.7939 -25.2971,2.3274 -62.9494,2.7668 -16.683,0.1947 -267.9197,0.587 -454.9506,0.7104 -75.6266,0.05 -83.3527,0.023 -82.834,-0.2875 z m -141.132,-172.9607 C 1191.2345,2146.0623 597.52096,829.81209 552.05705,729.85814 c -9.42867,-20.72925 -23.17146,-48.54216 -32.29852,-65.36635 -13.87041,-25.56776 -24.89166,-42.09244 -38.36697,-57.52541 -4.11169,-4.70902 -14.12942,-14.72622 -19.44479,-19.44377 -11.92754,-10.58604 -25.58825,-21.44667 -37.49759,-29.81161 -11.897,-8.35628 -21.8903,-14.60823 -57.55591,-36.00787 l -21.53122,-12.9189 115.05354,-0.1464 c 63.27947,-0.0805 156.11904,-0.14641 206.31018,-0.14641 h 91.2566 v 0.44773 c 0,1.50909 -4.43281,10.99943 -9.951,21.30444 -12.4425,23.23582 -20.51201,47.83959 -25.07796,76.46215 -1.18853,7.45045 -1.43883,11.83521 -1.59294,27.90429 -0.16389,17.08811 0.32811,31.22557 1.36247,39.15178 1.02327,7.84102 3.96854,21.3554 6.93418,31.8174 2.03341,7.1734 3.53518,11.52201 5.80475,16.80849 29.56795,68.87238 604.59903,1370.3568 608.69273,1377.6718 0.2274,0.4063 0.2287,0.4031 6.4541,-15.8545 18.2063,-47.5458 62.014,-163.1124 176.2385,-464.9251 68.8058,-181.8038 83.1463,-219.6207 84.804,-223.6343 l 0.9081,-2.1986 21.4323,0.1559 c 19.776,0.1438 28.4132,0.3418 28.7301,0.6588 0.069,0.069 -0.08,0.6964 -0.3308,1.3942 -0.251,0.6977 -2.4309,6.8549 -4.8443,13.6827 -10.0035,28.3012 -54.407,153.0074 -110.1146,309.2542 -41.378,116.0556 -168.4419,472.2787 -168.6395,472.78 -0.1439,0.3653 -4.3362,0.3845 -83.743,0.3845 h -83.5917 z m 455.5725,-926.4928 c -1.8815,-0.2 -2.4169,-0.393 -2.4169,-0.8713 0,-0.6007 6.4746,-16.8712 72.8381,-183.0399 109.208,-273.44792 122.6307,-307.26043 132.7091,-334.30219 4.8366,-12.97725 6.0066,-16.57269 7.8225,-24.04036 4.4407,-18.26032 6.5168,-31.95793 7.6791,-50.66404 0.3763,-6.05713 0.5178,-27.31906 0.2288,-34.386 -1.192,-29.14601 -5.5826,-54.31901 -13.7387,-78.76919 -4.6127,-13.82796 -8.707,-23.48449 -17.3113,-40.82881 -2.39,-4.81789 -4.3455,-8.81285 -4.3455,-8.8777 0,-0.0648 56.5309,-0.0606 125.6242,0.009 117.4273,0.11892 160.4569,0.32632 161.2627,0.77729 0.4338,0.24274 0.5132,0.18865 -33.9905,23.14933 -42.6287,28.36739 -46.8374,31.2802 -57.6134,39.87319 -38.4339,30.64795 -75.1204,73.67413 -100.3213,117.65736 -4.8282,8.42676 -11.4134,21.20226 -14.1936,27.53616 -4.6813,10.66491 -55.7986,139.91837 -167.5329,423.61796 l -48.5465,123.2622 -23.3629,0.024 c -12.8496,0.013 -24.0055,-0.044 -24.791,-0.1275 z"
       id="path551"
       sodipodi:nodetypes="cssssssssssccsssssssssssssssssccscssssssssscsscssssssssssssssssccssssssscsscssssssssssscssssssscsssssssssssssssssscsss"
       inkscape:export-filename="Victory.svg"
       inkscape:export-xdpi="300"
       inkscape:export-ydpi="300" />
  </g>
</svg>
