<svg width="231" height="286" viewBox="0 0 231 286" fill="none" xmlns="http://www.w3.org/2000/svg">
<path fill-rule="evenodd" clip-rule="evenodd" d="M37.7071 52L74.4142 88.7071H1L37.7071 52ZM3.41421 87.7071H72L37.7071 53.4142L3.41421 87.7071Z" fill="black" stroke="black" stroke-width="0.5"/>
<path fill-rule="evenodd" clip-rule="evenodd" d="M108.707 52L145.414 88.7071H72L108.707 52ZM74.4142 87.7071H143L108.707 53.4142L74.4142 87.7071Z" fill="black" stroke="black" stroke-width="0.5"/>
<path fill-rule="evenodd" clip-rule="evenodd" d="M179.707 52L216.414 88.7071H143L179.707 52ZM145.414 87.7071H214L179.707 53.4142L145.414 87.7071Z" fill="black" stroke="black" stroke-width="0.5"/>
<path fill-rule="evenodd" clip-rule="evenodd" d="M179.707 53.0073H37.707V52.0073H179.707V53.0073Z" fill="black" stroke="black" stroke-width="0.5"/>
<path fill-rule="evenodd" clip-rule="evenodd" d="M108.707 252.609L73.6963 88.4028L72.7183 88.6114L108.218 255.111H109.196L144.696 88.6114L143.718 88.4028L108.707 252.609Z" fill="black" stroke="black" stroke-width="0.5"/>
<path fill-rule="evenodd" clip-rule="evenodd" d="M1.00659 88.6977L1.84733 88.1562L108.707 254.084L215.567 88.1662L216.407 88.7077L108.707 255.93L1.00659 88.6977Z" fill="black" stroke="black" stroke-width="0.5"/>
<path fill-rule="evenodd" clip-rule="evenodd" d="M144.849 26.9923C143.672 26.8243 143.561 26.7122 143.337 25.5362L142.665 21L141.993 25.5362C141.825 26.7683 141.657 26.8805 140.425 27.0485L136 27.6645L140.536 28.3365C141.824 28.5044 141.88 28.6724 142.104 29.9604L142.72 34.3287L143.337 29.8483C143.504 28.672 143.56 28.5041 144.737 28.3361L149.385 27.6079L144.849 26.9923Z" fill="black"/>
<path fill-rule="evenodd" clip-rule="evenodd" d="M182.205 24.3402C180.184 24.0504 179.992 23.8569 179.607 21.8277L178.452 14L177.297 21.8277C177.009 23.9538 176.72 24.1473 174.603 24.4372L167 25.5003L174.795 26.6598C177.008 26.9496 177.105 27.2395 177.489 29.462L178.548 37L179.607 29.2686C179.895 27.2388 179.991 26.949 182.013 26.6591L190 25.4025L182.205 24.3402Z" fill="black"/>
<path fill-rule="evenodd" clip-rule="evenodd" d="M205.561 37.5419C203.891 37.3025 203.732 37.1426 203.414 35.4664L202.46 29L201.507 35.4664C201.268 37.2227 201.03 37.3825 199.281 37.622L193 38.5002L199.439 39.4581C201.268 39.6975 201.347 39.937 201.665 41.773L202.54 48L203.414 41.6132C203.653 39.9364 203.732 39.697 205.402 39.4575L212 38.4195L205.561 37.5419Z" fill="black"/>
<path fill-rule="evenodd" clip-rule="evenodd" d="M201.594 60.8445C200.452 60.6806 200.343 60.5713 200.126 59.4244L199.473 55L198.82 59.4244C198.657 60.6261 198.494 60.7354 197.297 60.8993L193 61.5002L197.406 62.1555C198.657 62.3194 198.711 62.4832 198.929 63.7394L199.527 68L200.125 63.6301C200.289 62.4828 200.343 62.319 201.485 62.1551L206 61.4449L201.594 60.8445Z" fill="black"/>
<path fill-rule="evenodd" clip-rule="evenodd" d="M227.289 61.5966C226.586 61.4958 226.519 61.4285 226.385 60.7227L225.983 58L225.582 60.7227C225.481 61.4622 225.381 61.5295 224.644 61.6303L222 62.0001L224.711 62.4034C225.481 62.5042 225.515 62.605 225.648 63.3781L226.017 66L226.385 63.3108C226.485 62.6048 226.519 62.504 227.222 62.4032L230 61.9661L227.289 61.5966Z" fill="black"/>
<path fill-rule="evenodd" clip-rule="evenodd" d="M201.76 2.96823L201.312 0L200.864 2.96823C200.752 3.75227 200.64 3.80813 199.856 3.92025L197 4.31208L199.912 4.76016C200.752 4.87228 200.808 4.98401 200.92 5.82435L201.312 8.68046L201.705 5.76814C201.817 4.9841 201.873 4.87198 202.601 4.76027L205.625 4.31218L202.713 3.8641C201.928 3.80823 201.872 3.75237 201.76 2.96833L201.76 2.96823Z" fill="black"/>
<path fill-rule="evenodd" clip-rule="evenodd" d="M162.913 44.2562L163.193 46.3282L163.473 44.2C163.529 43.6397 163.585 43.5839 164.145 43.4718L166.329 43.1358L164.257 42.8561C163.696 42.8002 163.64 42.744 163.528 42.1842L163.192 40L162.856 42.1842C162.744 42.8002 162.688 42.8002 162.128 42.9123L160 43.1924L162.128 43.5284C162.801 43.5839 162.856 43.6401 162.913 44.2562V44.2562Z" fill="black"/>
<path fill-rule="evenodd" clip-rule="evenodd" d="M163.913 10.2562L164.193 12.3282L164.473 10.2C164.529 9.63975 164.585 9.58389 165.145 9.47178L167.329 9.13581L165.257 8.8561C164.696 8.80024 164.64 8.74398 164.528 8.18417L164.192 6L163.856 8.18417C163.744 8.80024 163.688 8.80023 163.128 8.91234L161 9.19245L163.128 9.52841C163.801 9.58388 163.856 9.64014 163.913 10.2562V10.2562Z" fill="black"/>
<path fill-rule="evenodd" clip-rule="evenodd" d="M227.712 33.9203C226.928 33.8081 226.872 33.7523 226.76 32.9682L226.312 30L225.864 32.9682C225.752 33.7523 225.64 33.8081 224.856 33.9203L222 34.3125L224.912 34.7606C225.752 34.8727 225.808 34.9844 225.92 35.8247L226.312 38.6809L226.705 35.7685C226.817 34.9845 226.873 34.8724 227.601 34.7607L230.625 34.3126L227.712 33.9203Z" fill="black"/>
<g filter="url(#filter0_f_316_133)">
<ellipse cx="106.5" cy="272" rx="57.5" ry="7" fill="#D9D9D9"/>
</g>
<g filter="url(#filter1_f_316_133)">
<ellipse cx="109.5" cy="272" rx="83.5" ry="7" fill="#D9D9D9"/>
</g>
<defs>
<filter id="filter0_f_316_133" x="42" y="258" width="129" height="28" filterUnits="userSpaceOnUse" color-interpolation-filters="sRGB">
<feFlood flood-opacity="0" result="BackgroundImageFix"/>
<feBlend mode="normal" in="SourceGraphic" in2="BackgroundImageFix" result="shape"/>
<feGaussianBlur stdDeviation="3.5" result="effect1_foregroundBlur_316_133"/>
</filter>
<filter id="filter1_f_316_133" x="19" y="258" width="181" height="28" filterUnits="userSpaceOnUse" color-interpolation-filters="sRGB">
<feFlood flood-opacity="0" result="BackgroundImageFix"/>
<feBlend mode="normal" in="SourceGraphic" in2="BackgroundImageFix" result="shape"/>
<feGaussianBlur stdDeviation="3.5" result="effect1_foregroundBlur_316_133"/>
</filter>
</defs>
</svg>
