<svg width="1460" height="42" viewBox="0 0 1460 42" fill="none" xmlns="http://www.w3.org/2000/svg">
<path d="M753 5.75324C746.5 5.3613 723.019 15.9823 718 17.5125C700 23.0001 687.667 23 681.5 23C676 23 664.224 22.0368 636 12.4168C601.5 0.657758 580.743 8.25841 559.5 15.9445C540 23.0001 519.345 25.0357 500.5 15.9445C455 -6.00593 435 6.17699 428.5 8.10509C419.5 11.6327 380.9 31.5517 346.5 16.5" stroke="black" stroke-width="5"/>
<path d="M1 5.75324C7.5 5.3613 30.981 15.9823 36 17.5125C54 23.0001 66.3333 23 72.5 23C78 23 89.7757 22.0368 118 12.4168C152.5 0.657758 173.257 8.25841 194.5 15.9445C214 23.0001 234.655 25.0357 253.5 15.9445C299 -6.00593 319 6.17699 325.5 8.10509C334.5 11.6327 372.6 31.5517 407 16.5" stroke="black" stroke-width="5"/>
<path d="M707 20.2468C713.5 20.6387 736.981 10.0177 742 8.48753C760 2.99994 772.333 3 778.5 3C784 3 795.776 3.96319 824 13.5832C858.5 25.3422 879.257 17.7416 900.5 10.0555C920 2.99991 940.655 0.964341 959.5 10.0555C1005 32.0059 1025 19.823 1031.5 17.8949C1040.5 14.3673 1079.1 -5.55168 1113.5 9.5" stroke="black" stroke-width="5"/>
<path d="M1459 20.2468C1452.5 20.6387 1429.02 10.0177 1424 8.48753C1406 2.99994 1393.67 3 1387.5 3C1382 3 1370.22 3.96319 1342 13.5832C1307.5 25.3422 1286.74 17.7416 1265.5 10.0555C1246 2.99991 1225.34 0.964341 1206.5 10.0555C1161 32.0059 1141 19.823 1134.5 17.8949C1125.5 14.3673 1087.4 -5.55168 1053 9.5" stroke="black" stroke-width="5"/>
<path d="M753 21.7532C746.5 21.3613 723.019 31.9823 718 33.5125C700 39.0001 687.667 39 681.5 39C676 39 664.224 38.0368 636 28.4168C601.5 16.6578 580.743 24.2584 559.5 31.9445C540 39.0001 519.345 41.0357 500.5 31.9445C455 9.99407 435 22.177 428.5 24.1051C419.5 27.6327 380.9 47.5517 346.5 32.5" stroke="black" stroke-width="5"/>
<path d="M1 21.7532C7.5 21.3613 30.981 31.9823 36 33.5125C54 39.0001 66.3333 39 72.5 39C78 39 89.7757 38.0368 118 28.4168C152.5 16.6578 173.257 24.2584 194.5 31.9445C214 39.0001 234.655 41.0357 253.5 31.9445C299 9.99407 319 22.177 325.5 24.1051C334.5 27.6327 372.6 47.5517 407 32.5" stroke="black" stroke-width="5"/>
<path d="M707 36.2468C713.5 36.6387 736.981 26.0177 742 24.4875C760 18.9999 772.333 19 778.5 19C784 19 795.776 19.9632 824 29.5832C858.5 41.3422 879.257 33.7416 900.5 26.0555C920 18.9999 940.655 16.9643 959.5 26.0555C1005 48.0059 1025 35.823 1031.5 33.8949C1040.5 30.3673 1079.1 10.4483 1113.5 25.5" stroke="black" stroke-width="5"/>
<path d="M1459 36.2468C1452.5 36.6387 1429.02 26.0177 1424 24.4875C1406 18.9999 1393.67 19 1387.5 19C1382 19 1370.22 19.9632 1342 29.5832C1307.5 41.3422 1286.74 33.7416 1265.5 26.0555C1246 18.9999 1225.34 16.9643 1206.5 26.0555C1161 48.0059 1141 35.823 1134.5 33.8949C1125.5 30.3673 1087.4 10.4483 1053 25.5" stroke="black" stroke-width="5"/>
</svg>
