<svg width="1920" height="960" viewBox="0 0 1920 960" fill="none" xmlns="http://www.w3.org/2000/svg">
<path d="M904.763 99.7492L904.78 99.6857C907.409 89.7315 913.809 81.3764 922.735 76.1977L922.756 76.1856L922.777 76.1739C928.995 72.7255 935.521 70.9414 942.162 70.9414C945.508 70.9414 948.897 71.4003 952.244 72.2895L904.763 99.7492ZM904.763 99.7492C904.734 99.8581 904.705 99.9671 904.677 100.076L903.365 105.04L903.748 104.848C902.657 113.21 904.327 121.659 908.61 129.095L908.622 129.116C910.004 131.826 912.881 135.265 914.92 137.229C914.952 137.262 914.973 137.283 914.973 137.283L914.974 137.284C917.485 139.79 920.246 141.875 923.194 143.472C923.199 143.474 923.203 143.477 923.207 143.479L923.216 143.485L923.262 143.512L959.671 164.577L961.357 165.552L962.715 164.156C967.181 159.568 972.88 156.27 979.099 154.687L980.982 154.208V152.264V110.287C981.021 106.901 980.605 103.45 979.751 99.992L979.734 99.9216L979.712 99.8523C979.461 99.0425 978.853 97.2988 978.218 95.5898C977.6 93.9278 976.873 92.0712 976.391 91.1433L976.169 90.7168L975.805 90.4029C975.791 90.3904 975.771 90.3688 975.753 90.3373L973.586 91.5847M904.763 99.7492L973.586 91.5847M973.586 91.5847L975.756 90.3436C970.62 81.3623 962.26 74.9445 952.246 72.2899L973.586 91.5847ZM923.073 143.921L923.041 143.902L923.009 143.884C920.469 142.514 918.045 140.77 915.781 138.683L914.64 137.588C912.47 135.505 909.587 131.983 908.248 129.376L908.221 129.324L908.193 129.274C902.983 120.191 901.618 109.656 904.347 99.5763L904.349 99.5694L904.351 99.5625C907.009 89.5164 913.46 81.0766 922.54 75.7987C928.938 72.2556 935.518 70.5003 942.167 70.5003C945.532 70.5003 948.963 70.9542 952.364 71.8602L952.368 71.8611C962.307 74.4924 970.611 80.7732 975.835 89.5791L976.001 89.8578L976.232 90.0852C976.387 90.2378 976.649 90.5937 977.033 91.4059C977.408 92.2005 977.81 93.2325 978.333 94.6121C979.2 96.9033 980.016 99.2997 980.169 99.7967L980.173 99.8128C981.054 103.37 981.478 106.894 981.433 110.28L981.433 110.297V110.313V154.453C981.433 154.553 981.36 154.651 981.246 154.675C973.632 156.125 966.671 160.151 961.626 166.016L961.625 166.017C961.584 166.064 961.525 166.093 961.453 166.093C961.415 166.093 961.383 166.084 961.352 166.067L961.344 166.062L923.073 143.921Z" stroke="black" stroke-width="5"/>
<path d="M996.69 96.4534C997.433 94.4012 998.378 92.3614 999.505 90.3604L999.509 90.3526L999.514 90.3448C1004.56 81.5266 1013.14 74.9519 1023.07 72.2881L996.69 96.4534ZM996.69 96.4534L996.6 96.3857L996.034 98.4379C995.901 98.8868 995.777 99.3359 995.663 99.7848L995.623 99.9316C995.327 101.005 994.96 103.043 994.69 104.899C994.552 105.848 994.432 106.8 994.357 107.616C994.289 108.346 994.231 109.208 994.304 109.837L994.325 110.016L994.371 110.19C994.385 110.241 994.386 110.266 994.386 110.274V152.264V154.211L996.273 154.688C1002.53 156.268 1008.1 159.5 1012.59 164.15L1013.95 165.554L1015.64 164.577L1052.09 143.512L1052.16 143.477C1055.08 141.865 1057.83 139.781 1060.33 137.29C1062.91 134.757 1064.99 132.089 1066.71 129.141L1066.71 129.133L1066.72 129.125C1071.85 120.158 1073.23 109.686 1070.59 99.6818L1070.58 99.6744L1070.58 99.6671C1067.81 89.4202 1061.52 81.3805 1052.03 75.8423L1052 75.8275L1051.98 75.8134C1046.22 72.635 1039.73 70.948 1033.19 70.948C1029.78 70.948 1026.38 71.3984 1023.07 72.288L996.69 96.4534ZM993.922 110.233L993.025 110.289L993.909 110.146C993.729 109.033 993.934 106.786 994.313 104.39C994.664 102.179 995.095 100.229 995.195 99.7824C995.998 96.5851 997.31 93.3364 999.112 90.1296C1004.22 81.2169 1012.91 74.5485 1022.95 71.8546L1022.95 71.8542C1026.3 70.9552 1029.74 70.5 1033.19 70.5C1039.81 70.5 1046.38 72.2026 1052.21 75.4312L1052.21 75.4342L1052.23 75.443L1052.23 75.4455C1061.93 81.0988 1068.21 89.1898 1071.02 99.561C1073.69 109.701 1072.3 120.272 1067.1 129.357C1065.37 132.347 1063.27 135.037 1060.66 137.604L1060.65 137.612L1060.64 137.62C1058.1 140.158 1055.3 142.268 1052.34 143.889L1052.32 143.903L1052.29 143.917L1013.98 166.06C1013.98 166.06 1013.98 166.06 1013.97 166.061C1013.94 166.082 1013.9 166.092 1013.86 166.092C1013.79 166.092 1013.73 166.063 1013.69 166.019L1013.69 166.016C1008.58 160.062 1001.8 156.134 994.122 154.673C994.021 154.654 993.941 154.56 993.941 154.451V110.544H991.768L993.922 110.235L993.922 110.233Z" stroke="black" stroke-width="5"/>
<path d="M916.76 222.187L917.612 223.681L916.733 222.203C913.833 223.929 910.614 225.317 907.19 226.29C903.75 227.201 900.24 227.655 896.702 227.655C886.246 227.655 876.414 223.601 868.988 216.229C861.57 208.757 857.5 198.921 857.5 188.508C857.5 178.061 861.572 168.209 868.978 160.746C876.451 153.327 886.289 149.26 896.701 149.26C900.321 149.26 903.84 149.735 907.162 150.666L907.164 150.666C910.394 151.57 912.44 152.586 914.997 153.863C914.998 153.863 914.998 153.863 914.999 153.864L915.136 153.932C915.662 154.196 916.226 154.48 916.834 154.776L916.856 154.786L955.054 176.847L955.056 176.848C955.143 176.899 955.189 177.009 955.152 177.116C953.883 180.757 953.239 184.591 953.239 188.508C953.239 192.36 953.88 196.165 955.153 199.806L955.154 199.809C955.187 199.905 955.147 200.02 955.053 200.075C955.053 200.075 955.053 200.075 955.053 200.075L916.76 222.187ZM916.826 154.769L916.826 154.769L916.826 154.769ZM869.31 215.908L869.315 215.913L869.32 215.918C876.047 222.605 884.817 226.538 894.208 227.132V227.211H896.708C900.208 227.211 903.689 226.762 907.052 225.864L907.074 225.858L907.095 225.852C910.417 224.901 913.607 223.537 916.519 221.802L952.936 200.78L954.619 199.808L954.092 197.937C953.228 194.868 952.79 191.707 952.79 188.508C952.79 185.246 953.229 182.052 954.092 178.982L954.619 177.112L952.936 176.14L916.71 155.22L916.628 155.172L916.542 155.131C915.972 154.857 915.445 154.594 914.917 154.329L914.798 154.27L914.796 154.269L914.762 154.252C912.252 152.999 910.253 152.001 907.045 151.104C903.742 150.178 900.265 149.713 896.707 149.713C886.408 149.713 876.669 153.752 869.307 161.064L869.3 161.07L869.294 161.076C861.993 168.429 857.957 178.182 857.957 188.513C857.957 198.812 861.996 208.549 869.31 215.908Z" stroke="black" stroke-width="5"/>
<path d="M1107.93 213.99L1106.01 215.91C1098.72 223.199 1088.98 227.212 1078.61 227.212C1075.09 227.212 1071.63 226.764 1068.32 225.872L1068.31 225.87C1065.57 225.121 1061.41 223.556 1058.78 221.784C1058.77 221.774 1058.75 221.765 1058.74 221.756C1058.73 221.752 1058.72 221.748 1058.72 221.744L1022.38 200.78L1020.69 199.807L1021.22 197.934C1022.08 194.888 1022.52 191.73 1022.52 188.507C1022.52 185.227 1022.08 182.038 1021.22 178.989L1020.69 177.115L1022.38 176.143L1058.8 155.162C1061.83 153.356 1065.01 151.983 1068.27 151.1L1107.93 213.99ZM1107.93 213.99L1107.85 213.924M1107.93 213.99L1107.85 213.924M1107.85 213.924C1113.99 206.843 1117.35 197.913 1117.36 188.51V188.509C1117.36 178.174 1113.32 168.42 1106 161.06L1106 161.054C1098.56 153.618 1089.2 149.642 1078.97 149.642C1075.42 149.642 1071.82 150.135 1068.27 151.1L1107.85 213.924ZM1106.32 160.745L1106.34 160.764C1113.74 168.224 1117.81 178.072 1117.8 188.51V188.511C1117.8 198.931 1113.73 208.766 1106.33 216.221C1098.94 223.6 1089.11 227.658 1078.61 227.658H1078.6C1075.04 227.658 1071.54 227.2 1068.2 226.305C1065.41 225.541 1061.27 223.99 1058.56 222.181L1058.5 222.135L1058.42 222.093L1020.26 200.077L1020.26 200.076C1020.16 200.022 1020.12 199.91 1020.16 199.811L1020.16 199.808C1021.43 196.191 1022.07 192.39 1022.07 188.511C1022.07 184.569 1021.43 180.734 1020.16 177.118L1020.16 177.115C1020.12 177.016 1020.16 176.903 1020.26 176.85C1020.26 176.849 1020.26 176.849 1020.26 176.849L1058.55 154.789L1058.57 154.78L1058.59 154.77C1061.65 152.941 1064.88 151.555 1068.15 150.671L1068.15 150.67C1071.75 149.691 1075.4 149.196 1078.98 149.196C1089.3 149.196 1098.74 153.161 1106.32 160.745Z" stroke="black" stroke-width="5"/>
<path d="M1060.66 239.315L1061.1 239.756L1061.1 239.756C1063.24 241.918 1065.11 244.311 1066.65 246.864C1072.27 256.527 1073.75 267.046 1071.03 277.397C1066.53 294.121 1050.31 306.347 1032.44 306.347C1029.22 306.347 1026.03 305.935 1022.96 305.122C1012.8 302.373 1004.37 295.891 999.17 286.858C997.336 283.638 995.992 280.367 995.146 277.123C994.307 273.8 993.884 270.303 993.884 266.7C993.884 266.7 993.884 266.699 993.884 266.699L993.941 222.525V222.522C993.941 222.406 994.019 222.32 994.117 222.302L994.117 222.302L994.124 222.3C1001.72 220.848 1008.69 216.825 1013.74 210.96L1013.75 210.956C1013.82 210.876 1013.93 210.853 1014.03 210.91C1014.03 210.91 1014.03 210.911 1014.03 210.911L1052.19 232.952L1052.19 232.952L1052.19 232.952L1052.24 232.986C1052.83 233.372 1053.38 233.73 1053.9 234.069C1056.34 235.664 1058.28 236.933 1060.66 239.315ZM1023.08 304.683L1023.09 304.686C1026.12 305.489 1029.27 305.896 1032.45 305.896C1049.44 305.896 1065.51 294.181 1070.3 278.301L1070.33 278.285L1070.59 277.275C1073.33 266.886 1071.85 256.688 1066.28 247.103L1066.27 247.085L1066.26 247.067C1064.64 244.399 1062.65 241.895 1060.35 239.643C1057.98 237.264 1056.07 236.021 1053.7 234.471L1053.66 234.44L1053.66 234.44L1053.64 234.433C1053.58 234.389 1053.51 234.345 1053.44 234.3C1052.99 234.008 1052.54 233.722 1052.07 233.404L1052 233.354L1051.92 233.31L1015.7 212.391L1014.02 211.419L1012.66 212.812C1008.19 217.405 1002.48 220.699 996.272 222.282L994.392 222.761L994.39 224.702L994.335 266.694V266.697C994.335 270.239 994.753 273.708 995.584 276.997L995.586 277.005L995.589 277.014C996.43 280.245 997.774 283.483 999.559 286.627L999.563 286.634L999.567 286.64C1004.7 295.561 1013.06 301.974 1023.08 304.683Z" stroke="black" stroke-width="5"/>
<path d="M987.658 165.868C1000.14 165.868 1010.29 176.025 1010.29 188.505C1010.29 200.932 1000.15 211.058 987.658 211.058C975.197 211.058 965.062 200.935 965.062 188.505C965.062 176.021 975.207 165.868 987.658 165.868ZM965.512 188.502C965.512 200.7 975.448 210.606 987.656 210.606C999.882 210.606 1009.85 200.701 1009.85 188.502C1009.85 176.267 999.887 166.317 987.656 166.317C975.439 166.317 965.512 176.273 965.512 188.502Z" stroke="black" stroke-width="5"/>
<path d="M961.62 210.957L961.62 210.957L981.667 219.843L981.192 222.298C981.193 222.298 981.193 222.298 981.194 222.298C981.305 222.32 981.381 222.416 981.381 222.525L981.379 266.392L981.379 266.582L981.408 266.77C981.486 267.283 981.49 268.154 981.397 269.316C981.307 270.435 981.142 271.673 980.957 272.846C980.61 275.038 980.208 276.896 980.157 277.128C979.315 280.354 977.985 283.598 976.194 286.784C970.931 295.893 962.478 302.387 952.354 305.118C949.244 305.951 946.012 306.372 942.745 306.372C924.957 306.372 908.805 294.137 904.34 277.401L904.338 277.395C901.612 267.277 902.988 256.721 908.216 247.651L908.22 247.644L908.223 247.638C909.865 244.75 912.025 241.945 914.649 239.316C917.109 236.863 919.929 234.744 923.035 233.021L923.054 233.01L923.072 233L961.337 210.908L961.341 210.905C961.428 210.855 961.545 210.87 961.62 210.957ZM979.731 277L980.988 272.169L980.58 272.335C980.595 272.237 980.609 272.139 980.623 272.041C980.76 271.089 980.88 270.132 980.957 269.313C981.025 268.582 981.085 267.712 981.01 267.079L980.989 266.897L980.941 266.72C980.937 266.704 980.934 266.688 980.932 266.674C980.93 266.659 980.93 266.652 980.93 266.652V224.704V222.764L979.05 222.282C972.858 220.696 967.171 217.4 962.708 212.816L961.351 211.422L959.667 212.395L923.275 233.401C920.186 235.119 917.402 237.208 914.97 239.636L914.967 239.638C912.409 242.199 910.264 244.966 908.611 247.868C903.445 256.836 902.082 267.29 904.776 277.286C909.22 293.938 925.193 305.925 942.747 305.925C945.97 305.925 949.164 305.506 952.239 304.681L952.241 304.681C962.249 301.987 970.619 295.552 975.8 286.577L975.807 286.566L975.813 286.554C977.566 283.441 978.894 280.22 979.731 277Z" stroke="black" stroke-width="5"/>
<line x1="-2.18557e-07" y1="426.5" x2="862" y2="426.5" stroke="black" stroke-width="5"/>
<path d="M602 3.60921C602 3.60921 697.921 -8.38795 750.701 74.091C789.712 135.054 786.958 214.555 786.958 214.555L786.958 429" stroke="black" stroke-width="5"/>
<line x1="1284.5" y1="788" x2="1284.5" y2="6" stroke="black" stroke-width="5"/>
<line x1="1437.5" y1="288" x2="1437.5" y2="167" stroke="black" stroke-width="5"/>
<line x1="1920" y1="487.5" x2="1496" y2="487.5" stroke="black" stroke-width="5"/>
<line x1="859.5" y1="465" x2="859.5" y2="427" stroke="black" stroke-width="5"/>
<line x1="892.5" y1="498" x2="892.5" y2="460" stroke="black" stroke-width="5"/>
<line x1="925.5" y1="531" x2="925.5" y2="493" stroke="black" stroke-width="5"/>
<line x1="958.5" y1="564" x2="958.5" y2="526" stroke="black" stroke-width="5"/>
<line x1="958.5" y1="564" x2="958.5" y2="526" stroke="black" stroke-width="5"/>
<line x1="991.5" y1="597" x2="991.5" y2="559" stroke="black" stroke-width="5"/>
<line x1="1024.5" y1="630" x2="1024.5" y2="592" stroke="black" stroke-width="5"/>
<line x1="1057.5" y1="663" x2="1057.5" y2="625" stroke="black" stroke-width="5"/>
<line x1="1090.5" y1="696" x2="1090.5" y2="658" stroke="black" stroke-width="5"/>
<line x1="1123.5" y1="729" x2="1123.5" y2="691" stroke="black" stroke-width="5"/>
<line x1="1156.5" y1="762" x2="1156.5" y2="724" stroke="black" stroke-width="5"/>
<line x1="1189.5" y1="795" x2="1189.5" y2="757" stroke="black" stroke-width="5"/>
<line x1="1222.5" y1="828" x2="1222.5" y2="790" stroke="black" stroke-width="5"/>
<line x1="1255.5" y1="861" x2="1255.5" y2="823" stroke="black" stroke-width="5"/>
<line x1="1288.5" y1="894" x2="1288.5" y2="856" stroke="black" stroke-width="5"/>
<line x1="1321.5" y1="927" x2="1321.5" y2="889" stroke="black" stroke-width="5"/>
<line x1="1354.5" y1="960" x2="1354.5" y2="922" stroke="black" stroke-width="5"/>
<line x1="895" y1="462.5" x2="857" y2="462.5" stroke="black" stroke-width="5"/>
<line x1="928" y1="495.5" x2="890" y2="495.5" stroke="black" stroke-width="5"/>
<line x1="375" y1="839.5" x2="337" y2="839.5" stroke="black" stroke-width="5"/>
<line x1="375" y1="804.5" x2="337" y2="804.5" stroke="black" stroke-width="5"/>
<line x1="375" y1="769.5" x2="337" y2="769.5" stroke="black" stroke-width="5"/>
<line x1="375" y1="734.5" x2="337" y2="734.5" stroke="black" stroke-width="5"/>
<line x1="375" y1="699.5" x2="337" y2="699.5" stroke="black" stroke-width="5"/>
<line x1="375" y1="664.5" x2="337" y2="664.5" stroke="black" stroke-width="5"/>
<line x1="375" y1="629.5" x2="337" y2="629.5" stroke="black" stroke-width="5"/>
<line x1="383" y1="594.5" x2="337" y2="594.5" stroke="black" stroke-width="5"/>
<line x1="394" y1="559.5" x2="349" y2="559.5" stroke="black" stroke-width="5"/>
<line x1="418" y1="524.5" x2="367" y2="524.5" stroke="black" stroke-width="5"/>
<line x1="455" y1="489.5" x2="395" y2="489.5" stroke="black" stroke-width="5"/>
<line x1="496.963" y1="463.5" x2="428.963" y2="462.5" stroke="black" stroke-width="5"/>
<line x1="545" y1="443.5" x2="465" y2="443.5" stroke="black" stroke-width="5"/>
<line x1="961" y1="528.5" x2="923" y2="528.5" stroke="black" stroke-width="5"/>
<line x1="994" y1="561.5" x2="956" y2="561.5" stroke="black" stroke-width="5"/>
<line x1="994" y1="561.5" x2="956" y2="561.5" stroke="black" stroke-width="5"/>
<line x1="1027" y1="594.5" x2="989" y2="594.5" stroke="black" stroke-width="5"/>
<line x1="1060" y1="627.5" x2="1022" y2="627.5" stroke="black" stroke-width="5"/>
<line x1="1093" y1="660.5" x2="1055" y2="660.5" stroke="black" stroke-width="5"/>
<line x1="1126" y1="693.5" x2="1088" y2="693.5" stroke="black" stroke-width="5"/>
<line x1="1159" y1="726.5" x2="1121" y2="726.5" stroke="black" stroke-width="5"/>
<line x1="1192" y1="759.5" x2="1154" y2="759.5" stroke="black" stroke-width="5"/>
<line x1="1225" y1="792.5" x2="1187" y2="792.5" stroke="black" stroke-width="5"/>
<line x1="1258" y1="825.5" x2="1220" y2="825.5" stroke="black" stroke-width="5"/>
<line x1="1291" y1="858.5" x2="1253" y2="858.5" stroke="black" stroke-width="5"/>
<line x1="1324" y1="891.5" x2="1286" y2="891.5" stroke="black" stroke-width="5"/>
<line x1="1357" y1="924.5" x2="1319" y2="924.5" stroke="black" stroke-width="5"/>
<line x1="1390" y1="957.5" x2="1352" y2="957.5" stroke="black" stroke-width="5"/>
<line x1="334.5" y1="860" x2="334.5" y2="629" stroke="black" stroke-width="5"/>
<line x1="377.5" y1="860" x2="377.5" y2="629" stroke="black" stroke-width="5"/>
<line x1="1178.5" y1="762" x2="1178.5" y2="531" stroke="black" stroke-width="5"/>
<line x1="1180" y1="580.5" x2="1284" y2="580.5" stroke="black" stroke-width="5"/>
<line x1="1180" y1="632.5" x2="1284" y2="632.5" stroke="black" stroke-width="5"/>
<line x1="1180" y1="684.5" x2="1284" y2="684.5" stroke="black" stroke-width="5"/>
<line x1="1180" y1="736.5" x2="1284" y2="736.5" stroke="black" stroke-width="5"/>
<line x1="1493.5" y1="647" x2="1493.5" y2="427" stroke="black" stroke-width="5"/>
<line x1="1496" y1="646.5" x2="1287" y2="646.5" stroke="black" stroke-width="5"/>
<line x1="1080.5" y1="658" x2="1080.5" y2="427" stroke="black" stroke-width="5"/>
<path fill-rule="evenodd" clip-rule="evenodd" d="M1491 431H1496C1496 315.572 1402.43 222 1287 222C1171.57 222 1078 315.572 1078 431H1083C1083 318.334 1174.33 227 1287 227C1399.67 227 1491 318.334 1491 431Z" fill="black"/>
<path fill-rule="evenodd" clip-rule="evenodd" d="M1282 531.5H1287C1287 500.848 1262.15 476 1231.5 476C1200.85 476 1176 500.848 1176 531.5H1181C1181 503.61 1203.61 481 1231.5 481C1259.39 481 1282 503.61 1282 531.5Z" fill="black"/>
<path fill-rule="evenodd" clip-rule="evenodd" d="M1253 831.708V837.182C1272.97 828.781 1287 809.028 1287 786H1282C1282 806.201 1270.14 823.632 1253 831.708Z" fill="black"/>
<path fill-rule="evenodd" clip-rule="evenodd" d="M551 424C430.05 424 332 517.572 332 633H337C337 520.552 432.588 429 551 429V424Z" fill="black"/>
<path fill-rule="evenodd" clip-rule="evenodd" d="M655 424C500.36 424 375 517.572 375 633H380C380 577.223 410.277 526.337 460.001 489.222C509.726 452.106 578.652 429 655 429V424Z" fill="black"/>
<path d="M1359.53 761.443C1364.01 764.92 1369.49 766.557 1373.03 767L1420.03 760.236M1359.53 761.443C1355.58 758.375 1352.41 753.875 1352.03 747.5C1351.23 733.9 1366.36 729.5 1374.03 729L1508.53 748L1420.03 760.236M1359.53 761.443C1361.2 758.795 1367.43 753.8 1379.03 755C1390.63 756.2 1411.2 758.991 1420.03 760.236" stroke="black" stroke-width="5"/>
<path d="M1352.03 744.5V772.5C1354.03 778.5 1361.63 790.2 1376.03 789C1390.43 787.8 1472.03 776.5 1511.03 771V745.5" stroke="black" stroke-width="5"/>
<path d="M1512.53 748C1519.03 747.5 1542.51 761.048 1547.53 763C1565.53 770 1577.86 770 1584.03 770C1589.53 770 1601.31 768.771 1629.53 756.5C1664.03 741.5 1684.79 751.196 1706.03 761C1725.53 770 1746.19 772.597 1765.03 761C1810.53 733 1830.53 748.541 1837.03 751C1846.03 755.5 1884.13 781.2 1918.53 762" stroke="black" stroke-width="5"/>
<path d="M1511.53 771.012C1518.03 770.512 1541.51 784.06 1546.53 786.012C1564.53 793.012 1576.86 793.012 1583.03 793.012C1588.53 793.012 1600.31 791.783 1628.53 779.512C1663.03 764.512 1683.79 774.208 1705.03 784.012C1724.53 793.012 1745.19 795.609 1764.03 784.012C1809.53 756.012 1829.53 771.553 1836.03 774.012C1845.03 778.512 1883.13 804.212 1917.53 785.012" stroke="black" stroke-width="5"/>
<mask id="path-79-inside-1_122_4" fill="white">
<path d="M1790.08 486.677C1791.01 489.065 1794.64 487.646 1793.71 485.258C1789.13 473.538 1789.85 461.809 1790.56 450.227C1791.08 441.768 1791.59 433.383 1790.11 424.967C1803.98 436.974 1813.13 448.185 1830.26 456.677C1832.55 457.809 1834.28 454.319 1831.98 453.187C1813.8 444.169 1804.69 431.566 1789.72 419.626C1774.57 407.538 1759.58 401.475 1742.06 391.644C1736.28 388.407 1730.34 385.009 1724.89 381.309C1720.87 378.578 1718.41 374.873 1717.82 371.404C1717.53 369.757 1717.68 368.181 1718.29 366.825C1721.54 359.621 1733.83 362.172 1740.54 364.034C1755.03 368.056 1767.28 372.205 1779.13 377.598C1791.45 383.207 1803.33 390.165 1816.85 399.724C1823.29 404.279 1840.26 416.34 1846.57 418.921C1848.94 419.885 1850.4 416.286 1848.04 415.322C1842.16 412.918 1825.21 400.876 1819.09 396.55C1805.36 386.833 1793.27 379.759 1780.75 374.058C1769.79 369.068 1758.51 365.131 1745.51 361.393C1753.44 359.266 1761.63 357.872 1769.65 355.991C1790.5 351.096 1800.03 355.733 1822.74 366.791C1832.95 371.763 1845.78 378.006 1863.53 385.305C1865.9 386.276 1867.38 382.68 1865.01 381.705C1847.52 374.512 1834.67 368.261 1824.45 363.281C1800.86 351.795 1790.97 346.979 1768.77 352.193C1758.59 354.58 1748.38 356.244 1738.39 359.424C1730.94 357.589 1719 356.576 1714.9 364.88C1709.02 367.156 1700.03 367.722 1696 361.784C1689.73 352.528 1706.44 344.861 1712.66 341.945C1722.28 337.433 1732.98 333.548 1742.92 330.282C1753.71 326.737 1763.51 324.025 1768.86 322.925C1772.74 322.13 1776.75 321.89 1780.7 321.931C1809.7 322.242 1851.83 338.386 1876.41 351.907C1878.65 353.14 1880.53 349.726 1878.28 348.493C1869.66 343.75 1857.94 338.281 1845.06 333.295C1836.5 324.697 1828.29 312.111 1823.89 300.807C1824.51 300.755 1825.13 300.695 1825.73 300.627C1828.28 300.347 1827.85 296.475 1825.3 296.756C1817.63 297.624 1807.55 296.99 1797.95 296.386C1788.79 295.808 1780.06 295.258 1773.87 296.067C1769.75 296.603 1768.13 297.6 1764.47 299.154C1757.79 301.994 1750.71 304.583 1744.51 305.555C1737.61 306.636 1731.83 305.697 1729.21 300.663C1724.09 290.859 1738.07 284.074 1744.77 279.789C1767.88 265.006 1774.63 265.128 1807.63 265.724C1828.43 266.1 1838.89 263.402 1853.43 280.2C1867.44 296.381 1879.9 313.557 1892.45 330.864C1905.01 348.174 1916.23 363.633 1915.02 384.014C1914.37 394.937 1910.87 411.406 1906.15 428.781C1900.7 448.857 1893.65 470.063 1887.49 485.337C1886.54 487.714 1890.15 489.162 1891.1 486.785C1897.33 471.343 1904.44 449.977 1909.92 429.802C1914.69 412.217 1918.23 395.476 1918.9 384.243C1920.19 362.471 1908.59 346.481 1895.61 328.577C1882.99 311.183 1870.45 293.917 1856.37 277.655C1840.87 259.757 1829.81 262.237 1807.69 261.837C1777.73 261.295 1768.79 261.135 1750.56 271.682L1750.39 265.11C1750.19 256.852 1733.09 253.212 1727.11 251.922C1713.2 248.921 1693.69 246.762 1671.78 245.959C1669.23 245.869 1669.09 249.757 1671.65 249.847C1693.29 250.642 1712.56 252.774 1726.29 255.733C1738.75 258.423 1746.33 261.472 1746.33 264.424C1746.33 267.998 1736.39 271.562 1720.32 274.437C1681.79 281.331 1626.2 281.331 1587.67 274.437C1574.02 271.995 1564.79 269.055 1562.32 266.035C1561.59 265.131 1561.46 264.211 1561.93 263.135C1566.97 251.472 1639.56 249.37 1651.09 249.58C1653.65 249.621 1653.71 245.733 1651.15 245.692C1637.06 245.434 1562.22 247.176 1557.95 262.986C1557.75 263.726 1557.65 265.714 1557.59 266.413C1554.39 307.154 1564.81 330.965 1573.24 350.238C1577.2 359.296 1580.71 367.326 1582.06 375.561C1582.74 379.677 1582.19 382.776 1584.74 386.5C1595.76 402.56 1642.3 404.67 1660.28 404.287C1683.67 403.789 1706.2 399.827 1717.46 392.245C1723.04 394.377 1729.18 392.836 1734.92 392.052C1736.64 393.048 1738.4 394.048 1740.15 395.03C1755.45 403.614 1771.28 409.917 1785.22 420.908C1787.87 430.396 1787.28 440.141 1786.67 449.991C1785.94 461.998 1785.2 474.154 1790.09 486.669L1790.08 486.677ZM1659.49 190.964C1659.64 188.408 1655.75 188.179 1655.6 190.736C1654.51 208.182 1672.39 215.151 1672.91 235.024C1672.97 237.58 1676.86 237.49 1676.8 234.931C1676.26 214.188 1658.53 206.246 1659.49 190.962V190.964ZM1634.92 190.747C1634.94 188.19 1631.05 188.16 1631.03 190.717C1630.8 214.591 1647.2 218.637 1648.94 235.176C1649.2 237.722 1653.07 237.327 1652.81 234.779C1650.95 217.112 1634.7 213.031 1634.92 190.746L1634.92 190.747ZM1655.93 165.054C1657.37 162.941 1654.15 160.744 1652.71 162.86C1646.25 172.35 1643.24 181.431 1643.23 190.028C1643.22 211.971 1661.22 217.621 1661.29 237.999C1661.31 245.938 1658.28 253.344 1653 259.071C1651.27 260.955 1654.14 263.594 1655.87 261.71C1661.8 255.271 1665.21 246.942 1665.18 237.999C1665.11 216.254 1647.11 210.569 1647.13 190.027C1647.13 182.213 1649.92 173.871 1655.93 165.053L1655.93 165.054ZM1766.6 302.477C1770.23 305.847 1771.33 314.745 1768.93 318.954C1760.64 320.489 1751.43 323.43 1743.41 326.027C1745.12 320.377 1746.58 314.747 1747.64 308.935C1753.76 307.644 1760.38 305.145 1766.6 302.477L1766.6 302.477ZM1773.33 318.344C1774.9 312.896 1773.98 305.317 1770.38 300.844C1771.58 300.351 1773.17 300.021 1775.04 299.817C1778.88 303.988 1779.51 312.809 1777.89 318.072C1776.33 318.112 1774.81 318.202 1773.33 318.344V318.344ZM1781.93 318.074C1783.41 312.183 1782.63 304.862 1779.58 299.559C1784.74 299.463 1791.11 299.863 1797.7 300.28C1805.19 300.751 1812.97 301.241 1819.8 301.037C1823.51 311.165 1830.2 322.019 1837.13 330.356C1820.08 324.265 1799.98 318.54 1781.93 318.08L1781.93 318.074ZM1713.59 390.079C1702.46 396.548 1681.78 399.948 1660.2 400.408C1643.98 400.754 1597.86 398.75 1587.96 384.315C1586.11 381.617 1586.45 378.391 1585.95 375.243C1584.57 366.447 1580.92 358.107 1576.81 348.692C1568.76 330.307 1558.88 307.707 1561.25 269.802C1565.88 273.208 1574.88 276.107 1586.98 278.272C1626.04 285.257 1681.95 285.257 1721.01 278.272C1733.03 276.123 1741.99 273.246 1746.65 269.872C1746.68 271.247 1746.69 272.622 1746.7 273.994C1745.41 274.787 1744.08 275.625 1742.68 276.518C1733.79 282.208 1718.98 289.466 1725.76 302.469C1729.13 308.927 1735.72 310.547 1743.55 309.619C1742.37 315.736 1740.73 321.59 1738.87 327.53C1729.49 330.697 1719.98 334.222 1711.01 338.429C1702.15 342.584 1684.51 351.753 1692.78 363.97C1696.6 369.594 1703.98 371.128 1710.35 370.134C1706.17 376.455 1707.59 385.385 1713.59 390.082L1713.59 390.079ZM1713.93 371.802C1714.73 377.04 1718.42 381.611 1722.71 384.522C1724.7 385.875 1727.02 387.348 1729.53 388.867C1724.79 389.512 1720.26 390.275 1716.09 387.087C1711.44 383.542 1710.45 376.472 1713.93 371.799L1713.93 371.802ZM1611.17 381.837C1609.69 381.445 1609.09 383.705 1610.58 384.097C1628.97 388.989 1650.75 389.822 1669.68 388.578C1671.21 388.483 1671.07 386.15 1669.53 386.245C1650.87 387.473 1629.31 386.661 1611.18 381.837H1611.17Z"/>
</mask>
<path d="M1790.08 486.677C1791.01 489.065 1794.64 487.646 1793.71 485.258C1789.13 473.538 1789.85 461.809 1790.56 450.227C1791.08 441.768 1791.59 433.383 1790.11 424.967C1803.98 436.974 1813.13 448.185 1830.26 456.677C1832.55 457.809 1834.28 454.319 1831.98 453.187C1813.8 444.169 1804.69 431.566 1789.72 419.626C1774.57 407.538 1759.58 401.475 1742.06 391.644C1736.28 388.407 1730.34 385.009 1724.89 381.309C1720.87 378.578 1718.41 374.873 1717.82 371.404C1717.53 369.757 1717.68 368.181 1718.29 366.825C1721.54 359.621 1733.83 362.172 1740.54 364.034C1755.03 368.056 1767.28 372.205 1779.13 377.598C1791.45 383.207 1803.33 390.165 1816.85 399.724C1823.29 404.279 1840.26 416.34 1846.57 418.921C1848.94 419.885 1850.4 416.286 1848.04 415.322C1842.16 412.918 1825.21 400.876 1819.09 396.55C1805.36 386.833 1793.27 379.759 1780.75 374.058C1769.79 369.068 1758.51 365.131 1745.51 361.393C1753.44 359.266 1761.63 357.872 1769.65 355.991C1790.5 351.096 1800.03 355.733 1822.74 366.791C1832.95 371.763 1845.78 378.006 1863.53 385.305C1865.9 386.276 1867.38 382.68 1865.01 381.705C1847.52 374.512 1834.67 368.261 1824.45 363.281C1800.86 351.795 1790.97 346.979 1768.77 352.193C1758.59 354.58 1748.38 356.244 1738.39 359.424C1730.94 357.589 1719 356.576 1714.9 364.88C1709.02 367.156 1700.03 367.722 1696 361.784C1689.73 352.528 1706.44 344.861 1712.66 341.945C1722.28 337.433 1732.98 333.548 1742.92 330.282C1753.71 326.737 1763.51 324.025 1768.86 322.925C1772.74 322.13 1776.75 321.89 1780.7 321.931C1809.7 322.242 1851.83 338.386 1876.41 351.907C1878.65 353.14 1880.53 349.726 1878.28 348.493C1869.66 343.75 1857.94 338.281 1845.06 333.295C1836.5 324.697 1828.29 312.111 1823.89 300.807C1824.51 300.755 1825.13 300.695 1825.73 300.627C1828.28 300.347 1827.85 296.475 1825.3 296.756C1817.63 297.624 1807.55 296.99 1797.95 296.386C1788.79 295.808 1780.06 295.258 1773.87 296.067C1769.75 296.603 1768.13 297.6 1764.47 299.154C1757.79 301.994 1750.71 304.583 1744.51 305.555C1737.61 306.636 1731.83 305.697 1729.21 300.663C1724.09 290.859 1738.07 284.074 1744.77 279.789C1767.88 265.006 1774.63 265.128 1807.63 265.724C1828.43 266.1 1838.89 263.402 1853.43 280.2C1867.44 296.381 1879.9 313.557 1892.45 330.864C1905.01 348.174 1916.23 363.633 1915.02 384.014C1914.37 394.937 1910.87 411.406 1906.15 428.781C1900.7 448.857 1893.65 470.063 1887.49 485.337C1886.54 487.714 1890.15 489.162 1891.1 486.785C1897.33 471.343 1904.44 449.977 1909.92 429.802C1914.69 412.217 1918.23 395.476 1918.9 384.243C1920.19 362.471 1908.59 346.481 1895.61 328.577C1882.99 311.183 1870.45 293.917 1856.37 277.655C1840.87 259.757 1829.81 262.237 1807.69 261.837C1777.73 261.295 1768.79 261.135 1750.56 271.682L1750.39 265.11C1750.19 256.852 1733.09 253.212 1727.11 251.922C1713.2 248.921 1693.69 246.762 1671.78 245.959C1669.23 245.869 1669.09 249.757 1671.65 249.847C1693.29 250.642 1712.56 252.774 1726.29 255.733C1738.75 258.423 1746.33 261.472 1746.33 264.424C1746.33 267.998 1736.39 271.562 1720.32 274.437C1681.79 281.331 1626.2 281.331 1587.67 274.437C1574.02 271.995 1564.79 269.055 1562.32 266.035C1561.59 265.131 1561.46 264.211 1561.93 263.135C1566.97 251.472 1639.56 249.37 1651.09 249.58C1653.65 249.621 1653.71 245.733 1651.15 245.692C1637.06 245.434 1562.22 247.176 1557.95 262.986C1557.75 263.726 1557.65 265.714 1557.59 266.413C1554.39 307.154 1564.81 330.965 1573.24 350.238C1577.2 359.296 1580.71 367.326 1582.06 375.561C1582.74 379.677 1582.19 382.776 1584.74 386.5C1595.76 402.56 1642.3 404.67 1660.28 404.287C1683.67 403.789 1706.2 399.827 1717.46 392.245C1723.04 394.377 1729.18 392.836 1734.92 392.052C1736.64 393.048 1738.4 394.048 1740.15 395.03C1755.45 403.614 1771.28 409.917 1785.22 420.908C1787.87 430.396 1787.28 440.141 1786.67 449.991C1785.94 461.998 1785.2 474.154 1790.09 486.669L1790.08 486.677ZM1659.49 190.964C1659.64 188.408 1655.75 188.179 1655.6 190.736C1654.51 208.182 1672.39 215.151 1672.91 235.024C1672.97 237.58 1676.86 237.49 1676.8 234.931C1676.26 214.188 1658.53 206.246 1659.49 190.962V190.964ZM1634.92 190.747C1634.94 188.19 1631.05 188.16 1631.03 190.717C1630.8 214.591 1647.2 218.637 1648.94 235.176C1649.2 237.722 1653.07 237.327 1652.81 234.779C1650.95 217.112 1634.7 213.031 1634.92 190.746L1634.92 190.747ZM1655.93 165.054C1657.37 162.941 1654.15 160.744 1652.71 162.86C1646.25 172.35 1643.24 181.431 1643.23 190.028C1643.22 211.971 1661.22 217.621 1661.29 237.999C1661.31 245.938 1658.28 253.344 1653 259.071C1651.27 260.955 1654.14 263.594 1655.87 261.71C1661.8 255.271 1665.21 246.942 1665.18 237.999C1665.11 216.254 1647.11 210.569 1647.13 190.027C1647.13 182.213 1649.92 173.871 1655.93 165.053L1655.93 165.054ZM1766.6 302.477C1770.23 305.847 1771.33 314.745 1768.93 318.954C1760.64 320.489 1751.43 323.43 1743.41 326.027C1745.12 320.377 1746.58 314.747 1747.64 308.935C1753.76 307.644 1760.38 305.145 1766.6 302.477L1766.6 302.477ZM1773.33 318.344C1774.9 312.896 1773.98 305.317 1770.38 300.844C1771.58 300.351 1773.17 300.021 1775.04 299.817C1778.88 303.988 1779.51 312.809 1777.89 318.072C1776.33 318.112 1774.81 318.202 1773.33 318.344V318.344ZM1781.93 318.074C1783.41 312.183 1782.63 304.862 1779.58 299.559C1784.74 299.463 1791.11 299.863 1797.7 300.28C1805.19 300.751 1812.97 301.241 1819.8 301.037C1823.51 311.165 1830.2 322.019 1837.13 330.356C1820.08 324.265 1799.98 318.54 1781.93 318.08L1781.93 318.074ZM1713.59 390.079C1702.46 396.548 1681.78 399.948 1660.2 400.408C1643.98 400.754 1597.86 398.75 1587.96 384.315C1586.11 381.617 1586.45 378.391 1585.95 375.243C1584.57 366.447 1580.92 358.107 1576.81 348.692C1568.76 330.307 1558.88 307.707 1561.25 269.802C1565.88 273.208 1574.88 276.107 1586.98 278.272C1626.04 285.257 1681.95 285.257 1721.01 278.272C1733.03 276.123 1741.99 273.246 1746.65 269.872C1746.68 271.247 1746.69 272.622 1746.7 273.994C1745.41 274.787 1744.08 275.625 1742.68 276.518C1733.79 282.208 1718.98 289.466 1725.76 302.469C1729.13 308.927 1735.72 310.547 1743.55 309.619C1742.37 315.736 1740.73 321.59 1738.87 327.53C1729.49 330.697 1719.98 334.222 1711.01 338.429C1702.15 342.584 1684.51 351.753 1692.78 363.97C1696.6 369.594 1703.98 371.128 1710.35 370.134C1706.17 376.455 1707.59 385.385 1713.59 390.082L1713.59 390.079ZM1713.93 371.802C1714.73 377.04 1718.42 381.611 1722.71 384.522C1724.7 385.875 1727.02 387.348 1729.53 388.867C1724.79 389.512 1720.26 390.275 1716.09 387.087C1711.44 383.542 1710.45 376.472 1713.93 371.799L1713.93 371.802ZM1611.17 381.837C1609.69 381.445 1609.09 383.705 1610.58 384.097C1628.97 388.989 1650.75 389.822 1669.68 388.578C1671.21 388.483 1671.07 386.15 1669.53 386.245C1650.87 387.473 1629.31 386.661 1611.18 381.837H1611.17Z" stroke="black" stroke-width="10" mask="url(#path-79-inside-1_122_4)"/>
<path fill-rule="evenodd" clip-rule="evenodd" d="M1635 167H1440V172H1635V167ZM1672 172H1680H1920V167H1680H1672V172Z" fill="black"/>
<line x1="1440" y1="246.5" x2="1541" y2="246.5" stroke="black" stroke-width="5"/>
<line x1="1819" y1="229.5" x2="1920" y2="229.5" stroke="black" stroke-width="5"/>
<line x1="1819" y1="229.5" x2="1920" y2="229.5" stroke="black" stroke-width="5"/>
<line x1="1843" y1="259.5" x2="1920" y2="259.5" stroke="black" stroke-width="5"/>
<line x1="1819" y1="199.5" x2="1920" y2="199.5" stroke="black" stroke-width="5"/>
<line x1="1440" y1="276.5" x2="1541" y2="276.5" stroke="black" stroke-width="5"/>
<line x1="1452" y1="306.5" x2="1541" y2="306.5" stroke="black" stroke-width="5"/>
<line x1="1470" y1="336.5" x2="1541" y2="336.5" stroke="black" stroke-width="5"/>
<line x1="1898" y1="319.5" x2="1920" y2="319.5" stroke="black" stroke-width="5"/>
<line x1="1915" y1="349.5" x2="1920" y2="349.5" stroke="black" stroke-width="5"/>
<mask id="path-91-inside-2_122_4" fill="white">
<path d="M1822.45 674.961H1818V653.524C1817.99 651.385 1817.14 649.338 1815.63 647.826C1814.12 646.315 1812.07 645.463 1809.93 645.457H1660.89C1658.75 645.463 1656.7 646.315 1655.19 647.826C1653.68 649.338 1652.83 651.385 1652.82 653.524V674.985H1648.37V653.524C1648.37 650.204 1649.69 647.022 1652.04 644.675C1654.39 642.328 1657.57 641.006 1660.89 641H1809.93C1813.25 641.006 1816.43 642.327 1818.78 644.675C1821.13 647.022 1822.45 650.204 1822.45 653.524V674.985L1822.45 674.961Z"/>
</mask>
<path d="M1822.45 674.961L1827.45 674.91L1827.4 669.961H1822.45V674.961ZM1818 674.961H1813V679.961H1818V674.961ZM1818 653.524H1823V653.517L1823 653.509L1818 653.524ZM1815.63 647.826L1819.16 644.291L1819.16 644.29L1815.63 647.826ZM1809.93 645.457L1809.94 640.457L1809.94 640.457H1809.93V645.457ZM1660.89 645.457V640.457H1660.88L1660.88 640.457L1660.89 645.457ZM1655.19 647.826L1651.66 644.29L1651.66 644.292L1655.19 647.826ZM1652.82 653.524L1647.82 653.51L1647.82 653.517V653.524H1652.82ZM1652.82 674.985V679.985H1657.82V674.985H1652.82ZM1648.37 674.985H1643.37V679.985H1648.37V674.985ZM1648.37 653.524L1643.37 653.517V653.524H1648.37ZM1652.04 644.675L1655.58 648.212L1655.58 648.21L1652.04 644.675ZM1660.89 641V636L1660.88 636L1660.89 641ZM1809.93 641L1809.94 636H1809.93V641ZM1818.78 644.675L1815.24 648.21L1815.24 648.211L1818.78 644.675ZM1822.45 653.524H1827.45L1827.45 653.517L1822.45 653.524ZM1822.45 674.985L1817.45 675.036L1827.45 674.985H1822.45ZM1822.45 669.961H1818V679.961H1822.45V669.961ZM1823 674.961V653.524H1813V674.961H1823ZM1823 653.509C1822.99 650.049 1821.61 646.737 1819.16 644.291L1812.09 651.36C1812.67 651.938 1812.99 652.721 1813 653.539L1823 653.509ZM1819.16 644.29C1816.72 641.845 1813.4 640.467 1809.94 640.457L1809.92 650.457C1810.73 650.459 1811.51 650.785 1812.09 651.361L1819.16 644.29ZM1809.93 640.457H1660.89V650.457H1809.93V640.457ZM1660.88 640.457C1657.42 640.467 1654.1 641.844 1651.66 644.29L1658.73 651.361C1659.31 650.785 1660.09 650.459 1660.91 650.457L1660.88 640.457ZM1651.66 644.292C1649.21 646.737 1647.83 650.049 1647.82 653.51L1657.82 653.539C1657.83 652.721 1658.15 651.939 1658.73 651.359L1651.66 644.292ZM1647.82 653.524V674.985H1657.82V653.524H1647.82ZM1652.82 669.985H1648.37V679.985H1652.82V669.985ZM1653.37 674.985V653.524H1643.37V674.985H1653.37ZM1653.37 653.531C1653.37 651.535 1654.17 649.622 1655.58 648.212L1648.51 641.138C1645.22 644.421 1643.37 648.872 1643.37 653.517L1653.37 653.531ZM1655.58 648.21C1656.99 646.798 1658.9 646.004 1660.9 646L1660.88 636C1656.24 636.009 1651.79 637.857 1648.51 641.139L1655.58 648.21ZM1660.89 646H1809.93V636H1660.89V646ZM1809.92 646C1811.92 646.004 1813.83 646.798 1815.24 648.21L1822.31 641.139C1819.03 637.856 1814.58 636.009 1809.94 636L1809.92 646ZM1815.24 648.211C1816.66 649.623 1817.45 651.535 1817.45 653.531L1827.45 653.517C1827.45 648.873 1825.6 644.421 1822.31 641.138L1815.24 648.211ZM1817.45 653.524V674.985H1827.45V653.524H1817.45ZM1827.45 674.933L1827.45 674.91L1817.45 675.013L1817.45 675.036L1827.45 674.933Z" fill="black" mask="url(#path-91-inside-2_122_4)"/>
<mask id="path-93-inside-3_122_4" fill="white">
<path d="M1809.93 730.318H1660.89C1657.58 730.314 1654.39 728.992 1652.05 726.644C1649.7 724.296 1648.38 721.114 1648.37 717.796V695.868H1635V680.78H1663.7V685.237L1639.37 685.238V691.411H1652.74L1652.74 717.773C1652.74 719.91 1653.6 721.959 1655.11 723.471C1656.62 724.982 1658.67 725.834 1660.81 725.84H1809.93C1812.07 725.834 1814.12 724.982 1815.63 723.471C1817.14 721.959 1817.99 719.91 1818 717.773V691.411H1831.37V685.238H1807.12V680.782L1835.91 680.78V695.866H1822.54V717.771L1822.54 717.773C1822.54 721.112 1821.21 724.314 1818.85 726.669C1816.48 729.023 1813.27 730.337 1809.93 730.318L1809.93 730.318Z"/>
</mask>
<path d="M1809.93 730.318L1810.78 735.247L1809.93 725.318V730.318ZM1660.89 730.318L1660.89 735.318H1660.89V730.318ZM1652.05 726.644L1655.58 723.109L1655.58 723.107L1652.05 726.644ZM1648.37 717.796H1643.37L1643.37 717.803L1648.37 717.796ZM1648.37 695.868H1653.37V690.868H1648.37V695.868ZM1635 695.868H1630V700.868H1635V695.868ZM1635 680.78V675.78H1630V680.78H1635ZM1663.7 680.78H1668.7V675.78H1663.7V680.78ZM1663.7 685.237L1663.7 690.237L1668.7 690.236V685.237H1663.7ZM1639.37 685.238L1639.37 680.238L1634.37 680.239V685.238H1639.37ZM1639.37 691.411H1634.37V696.411H1639.37V691.411ZM1652.74 691.411L1657.74 691.411L1657.74 686.411H1652.74V691.411ZM1652.74 717.773L1647.74 717.772L1647.74 717.78L1647.74 717.787L1652.74 717.773ZM1655.11 723.471L1658.64 719.936L1658.64 719.935L1655.11 723.471ZM1660.81 725.84L1660.79 730.84L1660.8 730.84H1660.81V725.84ZM1809.93 725.84V730.84H1809.94L1809.95 730.84L1809.93 725.84ZM1815.63 723.471L1819.17 727.006L1819.17 727.005L1815.63 723.471ZM1818 717.773L1823 717.787L1823 717.78V717.773H1818ZM1818 691.411V686.411H1813V691.411H1818ZM1831.37 691.411V696.411H1836.37V691.411H1831.37ZM1831.37 685.238H1836.37V680.238H1831.37V685.238ZM1807.12 685.238H1802.12V690.238H1807.12V685.238ZM1807.12 680.782L1807.12 675.782L1802.12 675.782V680.782H1807.12ZM1835.91 680.78H1840.91V675.78L1835.91 675.78L1835.91 680.78ZM1835.91 695.866V700.866H1840.91V695.866H1835.91ZM1822.54 695.866V690.866H1817.54V695.866H1822.54ZM1822.54 717.771H1817.54V719.842L1819.01 721.307L1822.54 717.771ZM1822.54 717.773H1827.54V715.702L1826.08 714.237L1822.54 717.773ZM1809.93 730.318L1809.09 725.39L1809.9 735.318L1809.93 730.318ZM1809.93 725.318H1660.89V735.318H1809.93V725.318ZM1660.9 725.318C1658.91 725.315 1656.99 724.522 1655.58 723.109L1648.51 730.178C1651.79 733.463 1656.24 735.312 1660.89 735.318L1660.9 725.318ZM1655.58 723.107C1654.17 721.695 1653.37 719.783 1653.37 717.789L1643.37 717.803C1643.38 722.446 1645.23 726.897 1648.51 730.18L1655.58 723.107ZM1653.37 717.796V695.868H1643.37V717.796H1653.37ZM1648.37 690.868H1635V700.868H1648.37V690.868ZM1640 695.868V680.78H1630V695.868H1640ZM1635 685.78H1663.7V675.78H1635V685.78ZM1658.7 680.78V685.237H1668.7V680.78H1658.7ZM1663.7 680.237L1639.37 680.238L1639.37 690.238L1663.7 690.237L1663.7 680.237ZM1634.37 685.238V691.411H1644.37V685.238H1634.37ZM1639.37 696.411H1652.74V686.411H1639.37V696.411ZM1647.74 691.411L1647.74 717.772L1657.74 717.773L1657.74 691.411L1647.74 691.411ZM1647.74 717.787C1647.75 721.245 1649.13 724.561 1651.57 727.007L1658.64 719.935C1658.07 719.357 1657.74 718.575 1657.74 717.758L1647.74 717.787ZM1651.57 727.007C1654.02 729.452 1657.33 730.83 1660.79 730.84L1660.82 720.84C1660 720.838 1659.22 720.512 1658.64 719.936L1651.57 727.007ZM1660.81 730.84H1809.93V720.84H1660.81V730.84ZM1809.95 730.84C1813.4 730.83 1816.72 729.452 1819.17 727.006L1812.09 719.936C1811.52 720.512 1810.73 720.838 1809.92 720.84L1809.95 730.84ZM1819.17 727.005C1821.61 724.559 1822.99 721.245 1823 717.787L1813 717.758C1813 718.575 1812.67 719.358 1812.09 719.937L1819.17 727.005ZM1823 717.773V691.411H1813V717.773H1823ZM1818 696.411H1831.37V686.411H1818V696.411ZM1836.37 691.411V685.238H1826.37V691.411H1836.37ZM1831.37 680.238H1807.12V690.238H1831.37V680.238ZM1812.12 685.238V680.782H1802.12V685.238H1812.12ZM1807.12 685.782L1835.92 685.78L1835.91 675.78L1807.12 675.782L1807.12 685.782ZM1830.91 680.78V695.866H1840.91V680.78H1830.91ZM1835.91 690.866H1822.54V700.866H1835.91V690.866ZM1817.54 695.866V717.771H1827.54V695.866H1817.54ZM1819.01 721.307L1819.01 721.308L1826.08 714.237L1826.08 714.236L1819.01 721.307ZM1817.54 717.773C1817.54 719.782 1816.74 721.708 1815.32 723.123L1822.37 730.214C1825.68 726.92 1827.54 722.442 1827.54 717.773H1817.54ZM1815.32 723.123C1813.9 724.54 1811.97 725.33 1809.96 725.319L1809.9 735.318C1814.57 735.344 1819.06 733.507 1822.37 730.214L1815.32 723.123ZM1810.78 735.247L1810.78 735.247L1809.09 725.39L1809.09 725.39L1810.78 735.247Z" fill="black" mask="url(#path-93-inside-3_122_4)"/>
<mask id="path-95-inside-4_122_4" fill="white">
<path d="M1735.41 704.667L1731.53 700.722C1730.01 699.266 1727.98 698.465 1725.87 698.495H1671.65V694.036H1725.85C1729.14 694.029 1732.31 695.327 1734.65 697.647L1735.41 698.383L1736.06 697.736C1738.41 695.355 1741.62 694.007 1744.97 693.993H1798.87V698.449H1745.01C1742.85 698.456 1740.78 699.321 1739.26 700.856L1735.41 704.667Z"/>
</mask>
<path d="M1735.41 704.667L1731.85 708.172L1735.36 711.751L1738.93 708.221L1735.41 704.667ZM1731.53 700.722L1735.1 697.218L1735.05 697.163L1734.99 697.11L1731.53 700.722ZM1725.87 698.495V703.495H1725.91L1725.94 703.494L1725.87 698.495ZM1671.65 698.495H1666.65V703.495H1671.65V698.495ZM1671.65 694.036V689.036H1666.65V694.036H1671.65ZM1725.85 694.036V699.036L1725.86 699.036L1725.85 694.036ZM1734.65 697.647L1731.13 701.198L1731.15 701.216L1731.17 701.234L1734.65 697.647ZM1735.41 698.383L1731.93 701.969L1735.46 705.403L1738.94 701.918L1735.41 698.383ZM1736.06 697.736L1739.59 701.272L1739.6 701.262L1739.61 701.252L1736.06 697.736ZM1744.97 693.993V688.993H1744.96L1744.95 688.993L1744.97 693.993ZM1798.87 693.993H1803.87V688.993H1798.87V693.993ZM1798.87 698.449V703.449H1803.87V698.449H1798.87ZM1745.01 698.449V693.449H1745.01L1745 693.449L1745.01 698.449ZM1739.26 700.856L1742.78 704.41L1742.8 704.393L1742.81 704.377L1739.26 700.856ZM1738.98 701.163L1735.1 697.218L1727.97 704.227L1731.85 708.172L1738.98 701.163ZM1734.99 697.11C1732.52 694.747 1729.22 693.447 1725.8 693.495L1725.94 703.494C1726.74 703.483 1727.5 703.784 1728.08 704.334L1734.99 697.11ZM1725.87 693.495H1671.65V703.495H1725.87V693.495ZM1676.65 698.495V694.036H1666.65V698.495H1676.65ZM1671.65 699.036H1725.85V689.036H1671.65V699.036ZM1725.86 699.036C1727.83 699.032 1729.73 699.809 1731.13 701.198L1738.17 694.096C1734.89 690.844 1730.45 689.026 1725.84 689.036L1725.86 699.036ZM1731.17 701.234L1731.93 701.969L1738.89 694.796L1738.14 694.061L1731.17 701.234ZM1738.94 701.918L1739.59 701.272L1732.52 694.2L1731.87 694.847L1738.94 701.918ZM1739.61 701.252C1741.03 699.815 1742.97 699.001 1744.99 698.993L1744.95 688.993C1740.27 689.012 1735.79 690.894 1732.5 694.22L1739.61 701.252ZM1744.97 698.993H1798.87V688.993H1744.97V698.993ZM1793.87 693.993V698.449H1803.87V693.993H1793.87ZM1798.87 693.449H1745.01V703.449H1798.87V693.449ZM1745 693.449C1741.51 693.459 1738.17 694.859 1735.71 697.335L1742.81 704.377C1743.4 703.784 1744.2 703.452 1745.03 703.449L1745 693.449ZM1735.75 697.302L1731.89 701.113L1738.93 708.221L1742.78 704.41L1735.75 697.302Z" fill="black" mask="url(#path-95-inside-4_122_4)"/>
<mask id="path-97-inside-5_122_4" fill="white">
<path d="M1664.56 747.991L1680.55 726.748L1684.11 729.427L1668.12 750.67L1664.56 747.991Z"/>
</mask>
<path d="M1664.56 747.991L1660.57 744.984L1657.56 748.98L1661.56 751.986L1664.56 747.991ZM1680.55 726.748L1683.55 722.752L1679.56 719.746L1676.55 723.741L1680.55 726.748ZM1684.11 729.427L1688.1 732.434L1691.11 728.439L1687.11 725.432L1684.11 729.427ZM1668.12 750.67L1665.12 754.666L1669.11 757.672L1672.12 753.677L1668.12 750.67ZM1668.56 750.997L1684.54 729.754L1676.55 723.741L1660.57 744.984L1668.56 750.997ZM1677.54 730.743L1681.1 733.423L1687.11 725.432L1683.55 722.752L1677.54 730.743ZM1680.11 726.421L1664.13 747.664L1672.12 753.677L1688.1 732.434L1680.11 726.421ZM1671.13 746.675L1667.57 743.995L1661.56 751.986L1665.12 754.666L1671.13 746.675Z" fill="black" mask="url(#path-97-inside-5_122_4)"/>
<mask id="path-99-inside-6_122_4" fill="white">
<path d="M1787.44 729.427L1791 726.747L1804.5 745.503L1800.94 748.183L1787.44 729.427Z"/>
</mask>
<path d="M1787.44 729.427L1784.43 725.432L1780.52 728.375L1783.38 732.347L1787.44 729.427ZM1791 726.747L1795.06 723.827L1792.08 719.681L1788 722.752L1791 726.747ZM1804.5 745.503L1807.51 749.498L1811.42 746.555L1808.56 742.582L1804.5 745.503ZM1800.94 748.183L1796.88 751.103L1799.86 755.249L1803.94 752.178L1800.94 748.183ZM1790.45 733.422L1794.01 730.742L1788 722.752L1784.43 725.432L1790.45 733.422ZM1786.94 729.668L1800.44 748.423L1808.56 742.582L1795.06 723.827L1786.94 729.668ZM1801.49 741.508L1797.93 744.188L1803.94 752.178L1807.51 749.498L1801.49 741.508ZM1805 745.262L1791.5 726.506L1783.38 732.347L1796.88 751.103L1805 745.262Z" fill="black" mask="url(#path-99-inside-6_122_4)"/>
<path d="M1816.89 68.3782L1813.03 72.023C1805.87 78.8018 1795.13 78.4745 1785.19 75.8182C1776.25 73.4276 1768.74 69.3501 1766.85 68.2837L1784.88 57.0914C1784.88 57.0912 1784.88 57.0911 1784.88 57.0909C1784.88 57.0908 1784.88 57.0908 1784.88 57.0907C1788.55 54.8146 1792.77 53.5748 1797.1 53.5033C1801.42 53.4319 1805.68 54.5319 1809.43 56.6865L1809.44 56.6956L1809.46 56.7044C1811.78 57.9968 1813.71 59.8992 1815.02 62.2059L1816.89 68.3782ZM1816.89 68.3782C1816.74 66.2138 1816.1 64.1039 1815.02 62.2066L1816.89 68.3782ZM1816.76 129.515C1816.76 129.514 1816.76 129.514 1816.76 129.513V129.515ZM1875.83 81.4867C1875.21 82.5815 1874.9 83.1247 1874.75 83.3942H1874.75L1875.83 81.4867ZM1874.6 83.6583L1874.7 83.4835L1874.7 83.4835C1874.61 83.6255 1874.6 83.6529 1874.6 83.6582C1874.6 83.6582 1874.6 83.6583 1874.6 83.6583ZM1864.91 89.0753C1869.71 86.8082 1873.22 84.2801 1874.28 83.4794L1874.13 83.3959C1873.83 83.2261 1873.4 82.9803 1872.87 82.6762C1871.8 82.0679 1870.33 81.2261 1868.69 80.2919C1865.46 78.4431 1861.59 76.2274 1859.05 74.7454C1850.5 70.5273 1843.62 72.1532 1838.68 74.9428C1833.63 77.7964 1830.6 81.9005 1830.2 82.4677V83.4342L1833.77 87.0089C1836.86 90.0945 1840.84 92.1194 1845.16 92.7897L1845.16 92.7897L1845.17 92.7917C1852.11 93.9055 1859.25 91.7454 1864.91 89.0753ZM1773.76 99.4576C1768.91 101.374 1765.08 105.189 1763.13 110.005L1763.03 110.262C1762.35 111.995 1761.21 115.855 1760.21 119.47C1759.82 120.868 1759.47 122.201 1759.17 123.32L1759.44 123.317L1758.62 126.109C1758.82 126.101 1759.08 126.089 1759.4 126.07C1760.09 126.029 1761.03 125.957 1762.16 125.836C1764.44 125.594 1767.45 125.155 1770.66 124.375C1777.23 122.78 1784.03 119.899 1787.56 114.939C1790.05 111.278 1790.76 106.697 1789.5 102.456L1788.98 100.719L1788.08 100.325C1783.55 98.3618 1778.48 98.0556 1773.76 99.4576Z" stroke="black" stroke-width="5"/>
<path d="M48 391V387.5C52 385.1 55 382.5 56 381.5L64 375.5L75 364C75 364 85 360.5 91 357C97 353.5 105.5 348 105.5 348V358L100 368L88 381L67 389L48 391Z" fill="#0070A0"/>
<path d="M10.9999 330.5C19.7999 343.3 34.9999 343.167 40.9999 341.5C47.3999 334.7 16.9999 321 1.49994 315C0.999945 314.833 2.19994 317.7 10.9999 330.5Z" fill="#0070A0"/>
<path d="M208.729 312.72C207.466 294.631 194.817 272.723 173.473 271.79C172.124 223.719 118.096 209.778 84.1521 232.93C50.9752 254.119 42.1728 294.018 42.7261 331.257C37.3829 317.57 17.6716 303.764 2.09817 312.799C2.09817 312.615 1.3886 312.43 1.25333 313.606C1.33139 313.479 -1.78786 317.162 1.53437 316.841C4.76986 332.949 24.0441 348.979 42.7161 343.645C42.9 368.583 42.7161 394.483 43.1152 420.064C36.965 421.405 17.0978 419.228 14.3101 424.689C46.5 424.689 45.5 424.689 80 424.689C75.1169 419.919 59.2904 419.384 50.1478 419.919C50.401 411.582 50.1478 401.975 50.1478 391.745C72.6486 393.299 115.238 375.569 105.876 346.995C84.0549 335.569 57.1071 353.251 50.0989 376.033C33.2051 184.471 171.898 215.173 170.624 271.781C139.74 274.171 136.165 313.002 143.675 337.754C144.773 340.61 148.445 336.958 151.874 334.335V334.333C153.338 338.636 155.973 342.444 159.481 345.331C159.675 348.41 168.03 341.191 172.907 333.594C174.917 335.43 175.452 335.985 183.302 342.289C183.369 348.944 195.144 334.236 195.067 325.628C205.638 333.032 211.224 335.226 208.726 312.717L208.729 312.72ZM40.7542 340.448C25.3176 343.984 8.34559 331.937 3.11876 315.335C16.7199 307.795 35.7233 320.133 40.2302 335.629C39.5987 334.881 38.9481 334.142 38.2872 333.453C34.1045 329.258 28.9971 326.104 23.3745 324.243C21.8982 323.747 18.4302 322.532 17.8266 324.904C17.7919 325.034 17.87 325.169 18.0018 325.204C18.1337 325.239 18.269 325.161 18.3037 325.029C18.9647 322.94 24.5698 325.728 25.7547 326.262V326.264C28.0221 327.288 30.1837 328.533 32.2046 329.983C34.2309 331.446 36.108 333.101 37.8116 334.93C38.7016 335.889 39.5412 336.893 40.3271 337.941C40.5318 338.222 40.7262 338.535 40.9291 338.845C41.0072 339.341 41.0645 339.817 41.113 340.322L40.7542 340.448ZM104.405 349.27C104.008 376.626 75.1352 388.44 50.1873 388.732V387.76C50.6349 387.458 51.0721 387.118 51.5179 386.789C52.8 385.885 54.0543 384.943 55.2964 383.982C57.7772 382.039 60.1835 380.037 62.5151 377.977V377.976C67.2703 373.77 71.6697 369.178 75.6703 364.25C75.9809 363.861 75.4569 363.278 75.1169 363.686C70.988 368.316 66.5605 372.67 61.8644 376.723C59.4738 378.753 57.0067 380.706 54.4619 382.552C53.1885 383.475 51.9064 384.36 50.5758 385.243L50.2549 385.456C50.6539 382.094 52.0712 378.656 53.8304 374.187C60.9816 355.757 83.1888 339.233 104.407 349.268L104.405 349.27ZM145.587 335.785C140.225 311.497 142.945 274.19 174.285 275.145C174.821 297.382 164.368 320.756 145.589 335.785H145.587ZM165.735 337.728H165.737C164.061 339.773 162.267 341.72 160.366 343.557C157.559 340.295 155.361 336.557 153.876 332.52C162.205 324.539 168.645 314.797 172.724 304.006C174.065 305.706 175.687 308.097 178.815 311.613C176.872 319.094 172.316 330.129 165.738 337.717L165.735 337.728ZM192.171 323.914C191.315 330.228 190.597 334.406 184.447 340.964C182.105 338.74 178.531 334.639 174.47 331.151C177.967 324.672 178.415 324.292 181.61 314.635L181.612 314.634C184.887 317.932 188.43 320.954 192.202 323.669C192.188 323.747 192.177 323.825 192.172 323.903L192.171 323.914ZM205.548 329.13C203.605 327.819 202.817 327.643 197.62 324.272C189.178 318.287 180.842 310.884 174.05 300.198H174.054C176.583 292.28 177.813 284.007 177.697 275.697C200.498 281.292 207.454 306.737 205.55 329.12L205.548 329.13Z" fill="black"/>
<path d="M1447.82 467.87L1432.48 448.671C1432.37 434.858 1426.77 421.654 1416.93 411.964C1407.08 402.274 1393.79 396.892 1379.98 397.002C1366.16 397.111 1352.96 402.705 1343.27 412.549C1333.58 422.394 1328.2 435.686 1328.31 449.5H1333.04C1333.04 436.942 1338.03 424.899 1346.91 416.021C1355.79 407.141 1367.83 402.152 1380.39 402.152C1392.95 402.152 1404.99 407.141 1413.87 416.021C1422.75 424.9 1427.74 436.943 1427.74 449.5C1427.74 450.035 1427.92 450.554 1428.26 450.968L1444.12 470.807H1434.84C1433.53 470.807 1432.47 471.867 1432.47 473.174V499.216C1432.47 501.098 1431.72 502.901 1430.39 504.232C1429.06 505.562 1427.25 506.313 1425.37 506.318H1411.17C1409.86 506.318 1408.8 507.378 1408.8 508.685V534.727H1351.98V491.805C1351.98 491.13 1351.7 490.486 1351.2 490.029C1342.72 482.46 1336.83 472.426 1334.35 461.336H1375.66C1377.54 461.331 1379.34 460.581 1380.67 459.25C1382 457.919 1382.75 456.116 1382.76 454.234V449.902L1384.44 450.162C1385.29 450.304 1386.14 450.374 1387 450.375C1390.35 450.364 1393.62 449.344 1396.39 447.449C1399.15 445.553 1401.28 442.868 1402.5 439.745L1404.09 435.579H1404.09C1404.35 434.913 1404.3 434.165 1403.95 433.543C1403.58 432.929 1402.97 432.505 1402.27 432.383L1397.84 431.673C1392.2 430.814 1386.51 432.894 1382.76 437.189V428.193H1385.81C1388.18 428.204 1390.49 427.502 1392.46 426.174C1394.42 424.848 1395.93 422.96 1396.8 420.759L1399.17 414.863V414.864C1399.45 414.135 1399.36 413.315 1398.93 412.663C1398.49 412.01 1397.75 411.62 1396.96 411.621H1391.54C1389.18 411.609 1386.86 412.312 1384.9 413.639C1382.94 414.966 1381.43 416.853 1380.56 419.055L1380.39 419.458L1380.23 419.055C1379.36 416.853 1377.84 414.966 1375.88 413.639C1373.92 412.312 1371.61 411.609 1369.24 411.621H1363.82C1363.03 411.62 1362.3 412.01 1361.86 412.663C1361.43 413.315 1361.34 414.135 1361.62 414.864L1363.99 420.76V420.759C1364.85 422.96 1366.37 424.848 1368.33 426.174C1370.29 427.502 1372.6 428.204 1374.97 428.193H1378.02V437.189C1374.27 432.894 1368.58 430.814 1362.94 431.673L1358.52 432.383C1357.81 432.505 1357.2 432.929 1356.84 433.543C1356.48 434.165 1356.43 434.913 1356.69 435.579L1358.28 439.745H1358.28C1359.5 442.868 1361.63 445.553 1364.4 447.449C1367.16 449.344 1370.43 450.364 1373.79 450.375C1374.64 450.374 1375.5 450.304 1376.34 450.162L1378.02 449.902V454.234C1378.02 454.862 1377.78 455.464 1377.33 455.908C1376.89 456.352 1376.28 456.602 1375.66 456.602H1331.48C1330.79 456.605 1330.13 456.907 1329.68 457.43C1329.24 457.964 1329.04 458.66 1329.14 459.347C1331.32 472.205 1337.68 483.982 1347.25 492.846V537.093C1347.25 537.721 1347.5 538.323 1347.94 538.767C1348.39 539.211 1348.99 539.461 1349.62 539.461H1411.17C1411.8 539.461 1412.4 539.211 1412.84 538.767C1413.29 538.323 1413.54 537.721 1413.54 537.093V511.052H1425.37C1428.51 511.052 1431.52 509.805 1433.74 507.585C1435.96 505.365 1437.21 502.354 1437.21 499.215V475.54H1444.12C1445.32 475.543 1446.47 475.092 1447.34 474.282C1448.22 473.471 1448.75 472.359 1448.84 471.169C1448.93 469.98 1448.56 468.802 1447.82 467.87L1447.82 467.87ZM1384.21 443.818C1385.18 441.29 1387 439.173 1389.34 437.816C1391.69 436.46 1394.43 435.946 1397.11 436.361L1398.62 436.597L1398.08 438.041C1397.1 440.569 1395.29 442.687 1392.94 444.043C1390.59 445.399 1387.86 445.913 1385.18 445.498L1383.66 445.262L1384.21 443.818ZM1384.94 420.831H1384.94C1385.46 419.507 1386.37 418.37 1387.55 417.572C1388.73 416.773 1390.12 416.35 1391.54 416.356H1393.46L1392.42 418.983H1392.42C1391.9 420.308 1390.99 421.444 1389.81 422.242C1388.63 423.041 1387.24 423.465 1385.82 423.458H1383.9L1384.94 420.831ZM1374.97 423.458C1373.55 423.465 1372.16 423.041 1370.98 422.242C1369.8 421.444 1368.89 420.308 1368.37 418.983L1367.33 416.356H1369.24C1370.67 416.35 1372.06 416.773 1373.24 417.572C1374.42 418.37 1375.33 419.507 1375.85 420.831L1376.89 423.458H1374.97ZM1375.61 445.498C1372.93 445.907 1370.2 445.392 1367.85 444.036C1365.51 442.681 1363.69 440.566 1362.71 438.041L1362.17 436.597L1363.68 436.361C1366.36 435.946 1369.1 436.46 1371.45 437.816C1373.79 439.173 1375.6 441.29 1376.58 443.818L1377.13 445.262L1375.61 445.498Z" fill="black"/>
<circle r="26.9506" transform="matrix(-1 0 0 1 445.605 255.451)" stroke="black" stroke-width="5"/>
<line x1="2.5" y1="-2.5" x2="45.9309" y2="-2.5" transform="matrix(0.699625 0.71451 0.699625 -0.71451 447.062 282.692)" stroke="black" stroke-width="5" stroke-linecap="round"/>
<line x1="443.845" y1="387.419" x2="482.138" y2="425.712" stroke="black" stroke-width="5"/>
<line x1="2.5" y1="-2.5" x2="45.9309" y2="-2.5" transform="matrix(0.699625 -0.71451 0.699625 0.71451 411.736 319.505)" stroke="black" stroke-width="5" stroke-linecap="round"/>
<line x1="407.837" y1="426.628" x2="444.837" y2="389.628" stroke="black" stroke-width="5"/>
<path d="M444.868 392.396L444.868 284.165" stroke="black" stroke-width="5"/>
<circle r="2" transform="matrix(-1 0 0 1 456.649 246.615)" stroke="black" stroke-width="1.89011"/>
<circle r="2" transform="matrix(-1 0 0 1 441.187 249.56)" stroke="black" stroke-width="1.89011"/>
<circle r="2.94506" transform="matrix(-1 0 0 1 431.615 258.396)" fill="#FFB8EF"/>
<mask id="path-115-inside-7_122_4" fill="white">
<path d="M444.891 267.931C444.665 266.969 446.757 265.11 451.5 264C456.243 262.89 457.665 263.968 457.891 264.931C458.116 265.894 456.559 265.377 451.816 266.486C447.073 267.596 445.116 268.894 444.891 267.931Z"/>
</mask>
<path d="M449.759 266.792C450.183 268.604 449.342 269.819 449.201 270.014C448.978 270.319 448.86 270.345 449.102 270.183C449.555 269.882 450.662 269.331 452.639 268.869L450.361 259.131C447.595 259.778 445.285 260.712 443.562 261.858C442.717 262.42 441.822 263.161 441.122 264.12C440.503 264.968 439.486 266.778 440.022 269.07L449.759 266.792ZM452.639 268.869C453.607 268.642 454.281 268.557 454.716 268.536C455.161 268.514 455.265 268.562 455.144 268.531C455.012 268.497 454.572 268.355 454.086 267.91C453.577 267.444 453.193 266.801 453.022 266.07L462.759 263.792C462.13 261.103 459.984 259.45 457.635 258.846C455.525 258.303 453.063 258.499 450.361 259.131L452.639 268.869ZM453.022 266.07C452.932 265.686 452.754 264.672 453.211 263.462C453.712 262.136 454.656 261.396 455.283 261.049C455.814 260.755 456.236 260.672 456.238 260.672C456.285 260.661 456.255 260.67 456.043 260.699C455.217 260.811 453.34 260.995 450.677 261.618L452.955 271.355C455.035 270.868 456.307 270.755 457.39 270.608C457.655 270.572 458.024 270.519 458.398 270.436C458.727 270.363 459.404 270.197 460.124 269.799C460.94 269.348 462.005 268.482 462.566 266.996C463.084 265.625 462.905 264.417 462.759 263.792L453.022 266.07ZM450.677 261.618C448.079 262.225 446.086 262.93 445.184 263.208C444.943 263.283 444.834 263.311 444.799 263.319C444.733 263.335 444.958 263.273 445.338 263.268C445.689 263.264 446.697 263.297 447.771 263.991C449.003 264.787 449.561 265.943 449.759 266.792L440.022 269.07C440.277 270.16 440.945 271.487 442.345 272.391C443.588 273.194 444.823 273.275 445.464 273.267C446.596 273.253 447.702 272.897 448.134 272.763C449.453 272.356 450.809 271.857 452.955 271.355L450.677 261.618Z" fill="black" mask="url(#path-115-inside-7_122_4)"/>
</svg>
