<svg width="156" height="175" viewBox="0 0 156 175" fill="none" xmlns="http://www.w3.org/2000/svg">
<g id="leaf-1">
<g id="leaf-1_2">
<path id="Vector 1" d="M48.8082 156.729C49.2381 151.41 54.6019 144.589 57.2301 141.844L61.8126 138.642C63.1995 137.764 66.0577 135.895 66.3952 135.441C66.7327 134.987 70.2019 132.69 71.8943 131.599L76.8987 127.83L82.7468 122.926L86.8046 112.726C83.5311 113.376 74.1064 116.415 62.596 123.365C51.0855 130.316 44.7077 140.318 42.9575 144.45C40.4113 144.32 48.2709 163.378 48.8082 156.729Z" fill="#0070A0" stroke="#0070A0"/>
<path id="Vector 2" d="M50.0997 150.474C50.5296 145.155 55.8934 138.334 58.5216 135.589L63.1041 132.387C64.491 131.509 67.3492 129.64 67.6867 129.186C68.0242 128.732 71.4934 126.436 73.1858 125.344L78.1902 121.575L84.0383 116.671L88.0961 106.471C84.8226 107.122 75.3979 110.16 63.8875 117.111C52.3771 124.061 45.9992 134.063 44.249 138.196C41.7029 138.065 49.5624 157.124 50.0997 150.474Z" fill="#0070A0" stroke="#0070A0"/>
<g id="Left-leaf-1">
<path d="M5.08086 104.6C8.65554 98.3716 18.1843 96.1659 22.9448 94.3307L28.8809 93.4568C31.0654 93.1831 36.1871 97.1532 38.4252 93.0625C38.7899 92.396 42.1787 92.4742 44.8559 92.1158L54.4002 91.7216L69.1675 89.0422C69.1675 89.0422 85.5918 77.022 76.3814 72.8186C67.171 68.6152 58.878 70.0294 40.9411 71.8915C23.0042 73.7537 9.53411 82.2728 5.04118 86.2996C2.03109 84.6811 0.612501 112.386 5.08086 104.6Z" fill="#0070A0"/>
<path fill-rule="evenodd" clip-rule="evenodd" d="M4.87699 103.564C5.96281 102.452 7.18328 101.368 8.53461 100.316C12.4067 97.257 16.1463 95.0538 19.7549 93.7071C24.83 91.7947 32.7935 90.9146 43.6451 91.0682C53.999 91.2102 61.3977 90.4591 65.8416 88.8174C69.2682 87.5243 72.3385 85.4877 75.0542 82.7074C76.146 81.5472 77.1846 79.607 78.1714 76.8867C67.3336 71.7997 54.5063 70.1909 39.6882 72.0631C39.1294 72.1428 38.622 72.0061 38.1691 71.6498C37.6929 71.266 37.4155 70.7953 37.334 70.2379C37.2549 69.6786 37.4058 69.161 37.7889 68.6864C38.1443 68.2323 38.6013 67.9646 39.1601 67.8849C55.5496 65.8091 69.7373 67.8223 81.7182 73.9259C90.0545 78.2545 97.2275 84.444 103.232 92.4971C103.576 92.9385 103.712 93.4538 103.638 94.0436C103.592 94.6112 103.349 95.0668 102.907 95.411L102.865 95.4438C102.374 95.7804 101.848 95.9033 101.286 95.8084C100.698 95.7342 100.23 95.4772 99.8862 95.0358C94.7799 88.1917 88.7936 82.7847 81.9322 78.8149C80.8168 81.7671 79.5386 84.0276 78.0974 85.5936C74.9221 88.8646 71.3102 91.257 67.256 92.7725C62.3184 94.5778 54.435 95.4167 43.6048 95.2911C33.2491 95.1505 25.772 95.9403 21.1692 97.6621C17.9221 98.9054 14.585 100.883 11.1555 103.598C8.61636 105.575 6.62998 107.61 5.1969 109.702C4.6511 110.482 3.90401 110.775 2.95669 110.581C2.06359 110.345 1.53777 109.757 1.381 108.814C0.696531 104.291 0.316746 101.438 0.238118 100.257C-0.012531 94.2424 1.02923 88.9743 3.36332 84.4513C4.30289 82.6987 6.25182 80.2723 9.20535 77.1741C11.0613 75.2861 12.1524 73.3263 12.4792 71.2982C12.5975 70.1416 12.9256 68.711 13.4616 67.0073C14.1517 64.6507 14.963 63.0434 15.8919 62.1875C17.4568 60.8361 19.4146 59.6213 21.7696 58.5419C22.6507 58.0775 23.6083 57.6863 24.6463 57.3662L25.033 57.2645C28.0306 56.2155 31.4655 55.6696 35.3354 55.6276C38.9315 55.577 41.3772 55.2697 42.6674 54.7075L42.7842 54.6834C43.6237 54.3396 44.6643 53.7965 45.9032 53.0526C47.7048 52.0051 49.3201 51.2334 50.7538 50.7387C53.27 49.7546 56.1921 49.7194 59.5186 50.6324C62.8124 51.6154 65.7771 53.3429 68.4113 55.815C69.8293 57.2389 72.2551 57.9882 75.6859 58.0664C79.6987 58.2676 82.3942 60.1603 83.7679 63.7466C83.9513 64.2693 84.0336 66.5106 84.0162 70.4722C83.9921 71.0682 83.7799 71.5667 83.3802 71.9652C82.96 72.3361 82.4629 72.5237 81.8901 72.5271C81.3161 72.5313 80.8176 72.3191 80.3985 71.8928C79.9998 71.4942 79.7974 71.0078 79.7941 70.4339C79.8198 67.2204 79.7945 65.4218 79.7169 65.0387C79.0618 63.2871 77.6578 62.3637 75.4973 62.2709C71.0723 62.1687 67.7475 61.0327 65.524 58.8616C63.3816 56.8483 60.9864 55.4541 58.3407 54.6764C55.9988 54.0611 53.9418 54.0668 52.1676 54.6939C51.0482 55.0775 49.6717 55.7291 48.0347 56.6484C46.4157 57.6429 45.1223 58.3179 44.1552 58.672C42.2977 59.364 39.3711 59.7592 35.3668 59.8612C32.0274 59.8444 29.054 60.2976 26.4461 61.2201L26.2172 61.2657L25.9779 61.3852C25.2539 61.5936 24.4554 61.9054 23.5799 62.3209C21.4068 63.3478 19.7727 64.354 18.6781 65.3401C18.3426 65.6469 17.9358 66.6059 17.4603 68.218C17.0221 69.5347 16.7368 70.7332 16.6019 71.8136C16.1857 74.7532 14.7205 77.5137 12.2061 80.0936C9.39184 83.0835 7.68247 85.1906 7.08293 86.4121C5.08684 90.2283 4.1993 94.7554 4.42041 99.9948L4.87699 103.564Z" fill="black"/>
</g>
<path id="Left-leaf-2" fill-rule="evenodd" clip-rule="evenodd" d="M48.7896 156.683C49.0808 155.513 49.4653 154.306 49.9414 153.064C51.2908 149.477 52.8515 146.495 54.6248 144.118C57.1124 140.764 61.7428 136.863 68.5164 132.416C74.9778 128.171 79.3027 124.589 81.4921 121.673C83.171 119.407 84.3744 116.812 85.1031 113.889C85.3815 112.686 85.3595 111.004 85.038 108.843C76.5814 110.114 68.0852 114.453 59.5495 121.863C59.2307 122.148 58.8696 122.273 58.4669 122.234C58.0404 122.187 57.7072 122 57.4656 121.676C57.2248 121.35 57.1409 120.954 57.2154 120.489C57.2799 120.048 57.4711 119.685 57.7899 119.4C67.229 111.201 76.7065 106.552 86.2195 105.455C92.8668 104.745 99.4316 105.717 105.911 108.376C106.276 108.516 106.537 108.79 106.693 109.2C106.859 109.584 106.865 109.978 106.709 110.384L106.695 110.423C106.506 110.845 106.222 111.144 105.842 111.319C105.452 111.517 105.074 111.548 104.71 111.409C99.2006 109.15 93.6391 108.183 88.0284 108.507C88.3498 110.871 88.3332 112.859 87.9774 114.468C87.1323 117.9 85.7156 120.95 83.7242 123.622C81.2851 126.85 76.6901 130.691 69.9393 135.146C63.4773 139.394 59.1171 143.033 56.8567 146.067C55.2719 148.226 53.8833 150.894 52.6899 154.075C51.7952 156.409 51.2627 158.548 51.0923 160.492C51.0218 161.223 50.6596 161.724 50.0064 161.996C49.3722 162.218 48.8449 162.06 48.4246 161.521C46.4498 158.901 45.2363 157.227 44.7828 156.501C42.5653 152.742 41.4043 148.921 41.2991 145.037C41.2801 143.518 41.6553 141.142 42.4223 137.915C42.9244 135.924 42.9283 134.208 42.4353 132.768C42.112 131.975 41.8247 130.919 41.5725 129.6C41.192 127.797 41.1434 126.424 41.4252 125.485C41.9311 123.961 42.7272 122.361 43.8156 120.681C44.2021 120.013 44.6611 119.361 45.1942 118.721L45.3989 118.493C46.8958 116.564 48.8359 114.774 51.2184 113.126C53.4283 111.588 54.8377 110.366 55.4441 109.464L55.5081 109.4C55.9102 108.827 56.3685 108.043 56.8807 107.046C57.6374 105.618 58.3732 104.446 59.0916 103.527C60.3126 101.841 62.1103 100.594 64.4836 99.7877C66.8607 99.0397 69.2892 98.9078 71.7683 99.3928C73.1347 99.7137 74.8941 99.1791 77.0457 97.7923C79.6001 96.2408 81.9185 96.3279 83.9989 98.0566C84.2917 98.3156 85.1111 99.7212 86.4587 102.274C86.6481 102.667 86.6876 103.076 86.5767 103.499C86.4436 103.914 86.2 104.242 85.8464 104.485C85.4924 104.728 85.1109 104.8 84.7051 104.702C84.3215 104.613 84.0293 104.385 83.8306 104.018C82.7447 101.942 82.1123 100.797 81.9329 100.584C80.9266 99.7326 79.7404 99.7274 78.3705 100.573C75.5949 102.36 73.1462 103.023 71.0246 102.56C69.0074 102.163 67.0459 102.271 65.1406 102.879C63.4792 103.465 62.2072 104.33 61.3233 105.476C60.7615 106.192 60.1324 107.187 59.4338 108.463C58.772 109.78 58.2024 110.756 57.7248 111.388C56.8116 112.611 55.1345 114.091 52.6894 115.833C50.6154 117.221 48.9292 118.758 47.6303 120.443L47.5041 120.568L47.3969 120.745C47.0199 121.182 46.6323 121.717 46.2325 122.351C45.2387 123.921 44.5716 125.252 44.2318 126.344C44.1291 126.681 44.206 127.468 44.4642 128.703C44.6443 129.732 44.8785 130.622 45.1654 131.372C45.9155 133.435 45.9545 135.823 45.2818 138.533C44.5639 141.633 44.2277 143.703 44.2751 144.739C44.3473 148.027 45.3498 151.307 47.2832 154.581L48.7896 156.683Z" fill="black"/>
<g id="Right-leaf">
<path d="M114.11 49.3095L99.6104 32.3095L101.61 30.3095C102.01 29.9095 102.11 30.1428 102.11 30.3095C102.944 29.9761 104.81 29.1095 105.61 28.3095C106.61 27.3095 107.11 27.8095 107.61 27.3095C108.11 26.8095 109.61 26.3095 110.11 25.8095L110.61 25.3095L114.11 23.3095L118.11 21.8095L127.61 18.8095V25.3095L124.11 37.8095L114.11 49.3095Z" fill="white"/>
<path d="M139.437 44.3765L152.16 31.2405L149.777 15.0579C149.777 15.0579 144.11 1.30947 145.11 3.80941C146.11 6.30936 129.901 36.2981 126.895 38.1367C111.61 51.8096 104.009 67.8843 106.264 66.3979C106.264 66.3979 90.9474 89.3737 122.998 77.0746C133.965 72.8661 135.146 49.5567 135.146 49.5567L139.437 44.3765Z" fill="#0070A0"/>
<path fill-rule="evenodd" clip-rule="evenodd" d="M97.3353 36.8492C93.0579 42.5748 90.9084 48.4401 90.8851 54.4464C90.9184 60.5848 93.1539 66.473 97.5883 72.1112C97.9601 72.5326 98.1092 73.0364 98.0348 73.6261C97.9905 74.1924 97.7438 74.6741 97.2964 75.0662L97.2542 75.099C96.8128 75.4427 96.3117 75.5667 95.7494 75.4727C95.1817 75.4267 94.7009 75.1811 94.308 74.7326C89.2711 68.3208 86.7345 61.5598 86.6953 54.4497C86.7304 47.5479 89.16 40.8445 93.9839 34.3369C97.1605 30.044 101.117 26.4985 105.854 23.6957C108.882 22.0034 113.179 20.2311 118.745 18.3802C124.455 16.3726 128.336 14.8361 130.39 13.7693C134.246 11.8305 137.301 9.31889 139.554 6.23329C140.11 5.57871 140.791 4.20521 141.6 2.11121C141.9 1.30105 142.504 0.852418 143.412 0.767568C144.266 0.723048 144.93 1.09256 145.407 1.87451C149.267 8.71437 151.909 14.0411 153.33 17.857C156.087 25.5557 155.479 32.1492 151.505 37.64C150.441 39.1773 148.069 41.3133 144.387 44.0481C141.037 46.5241 138.793 48.5372 137.651 50.0919C136.771 51.3536 136.367 54.1083 136.437 58.3559C136.495 63.4994 135.272 67.822 132.766 71.3261C129.019 76.5948 123.955 80.2293 117.571 82.2279C112.672 83.7379 108.003 83.7796 103.568 82.3562C101.173 93.8995 116.369 134.453 121.421 141.562C121.764 142.003 121.899 142.52 121.825 143.11C121.76 143.649 121.504 144.091 121.062 144.436L120.979 144.5C120.517 144.817 119.99 144.938 119.4 144.865C118.839 144.77 118.389 144.477 118.051 143.986C111.695 135.142 97.1001 93.1809 99.3709 79.1041C99.8009 65.0213 108.124 50.7335 124.337 36.2444C124.757 35.8736 125.265 35.6984 125.861 35.7229C126.427 35.7698 126.897 36.0025 127.268 36.4228C127.668 36.8205 127.856 37.3182 127.832 37.9136C127.807 38.5096 127.571 39.004 127.124 39.3966C112.398 52.5498 104.568 65.3887 103.635 77.9134C107.527 79.4942 111.767 79.5859 116.354 78.1863C121.776 76.4923 126.102 73.39 129.329 68.88C131.316 66.1354 132.288 62.6284 132.246 58.3592C132.161 53.2367 132.818 49.6651 134.214 47.6458C135.65 45.7295 138.193 43.4156 141.848 40.703C145.231 38.1565 147.305 36.3209 148.068 35.1934C151.222 30.8746 151.645 25.5783 149.333 19.3067C148.335 16.4913 146.469 12.5557 143.732 7.50322L142.945 8.71494C140.351 12.3312 136.807 15.2682 132.313 17.5264C129.947 18.7034 125.882 20.3168 120.117 22.3671C115.023 24.0288 110.951 25.6904 107.901 27.3569C103.789 29.7591 100.267 32.9254 97.3353 36.8492Z" fill="black"/>
</g>
</g>
</g>
</svg>
