<svg width="960" height="291" viewBox="0 0 960 291" fill="none" xmlns="http://www.w3.org/2000/svg">
<g id="cradle">
<g id="Group 106">
<g id="cradle-2">
<g id="Vector">
<path d="M308.567 240.096C306.682 237.385 305.329 234.721 307.745 231.677L307.747 231.773C307.819 231.701 313.569 224.828 315.55 223.021C316.24 222.315 316.709 221.428 316.902 220.467C317.095 219.505 317.002 218.51 316.637 217.598C316.332 216.834 315.799 216.178 315.11 215.716C314.42 215.254 313.606 215.006 312.771 215.006C310.114 215.006 302.553 215.91 301.321 216.076C300.682 215.98 300.118 215.616 299.775 215.077H299.774L293.058 201.378C292.66 200.661 292.074 200.061 291.36 199.642C290.646 199.224 289.831 199.002 289 199C288.162 198.999 287.339 199.219 286.616 199.637C285.894 200.055 285.299 200.657 284.893 201.378L278.274 214.935C277.916 215.494 277.339 215.882 276.679 216.005C275.447 215.838 267.935 214.935 265.229 214.935C264.394 214.935 263.579 215.182 262.89 215.645C262.201 216.107 261.668 216.763 261.363 217.527C260.998 218.438 260.905 219.434 261.098 220.395C261.291 221.356 261.76 222.243 262.45 222.95V222.949C263.658 224.162 265.422 226.232 267.113 228.229C268.345 229.656 269.528 231.083 270.398 232.034C273.297 235.174 271.582 238.099 269.311 240.763C268.761 241.442 268.418 242.261 268.324 243.124C268.23 243.988 268.388 244.86 268.779 245.639C269.104 246.339 269.623 246.934 270.278 247.355C270.932 247.776 271.694 248.005 272.476 248.017C274.288 247.994 277.525 246.733 283.298 243.784C283.885 243.469 284.11 242.752 283.806 242.166C283.496 241.592 282.775 241.37 282.187 241.667C280.351 242.642 274.529 245.639 272.524 245.639C271.857 245.595 271.275 245.179 271.026 244.569C270.824 244.195 270.735 243.773 270.769 243.352C270.804 242.93 270.959 242.527 271.219 242.19L271.263 242.138C272.865 240.223 276.926 235.366 272.258 230.299C271.461 229.371 270.253 228.015 269.045 226.565C267.258 224.543 265.494 222.426 264.213 221.142C263.846 220.779 263.594 220.316 263.491 219.813C263.388 219.31 263.437 218.788 263.634 218.312C263.874 217.623 264.536 217.162 265.276 217.17C268.079 217.146 276.558 218.241 276.558 218.241H276.849C278.362 218.068 279.696 217.18 280.424 215.862L287.043 202.33C287.497 201.712 288.225 201.346 289 201.346C289.775 201.346 290.502 201.712 290.957 202.33L297.672 216.029C298.388 217.337 299.702 218.223 301.2 218.407H301.61C301.683 218.407 310.065 217.337 312.892 217.337C313.632 217.328 314.295 217.789 314.535 218.478C314.731 218.954 314.781 219.476 314.678 219.98C314.575 220.483 314.323 220.945 313.955 221.309H313.955C311.806 223.378 306.153 230.228 305.911 230.513C302.022 235.198 304.993 239.384 306.612 241.762L306.925 242.214C307.191 242.607 307.347 243.063 307.376 243.535C307.406 244.007 307.309 244.478 307.094 244.901C306.864 245.439 306.306 245.766 305.717 245.71V245.71C304.316 245.663 296.537 241.952 289.821 238.409H288.685L288.492 238.528H288.299L288.13 238.718V238.932C288.141 239.011 288.141 239.091 288.13 239.169V261.811C288.13 262.468 288.671 263 289.338 263C290.005 263 290.546 262.468 290.546 261.811V241.095C294.676 243.236 303.47 247.754 305.74 247.754C306.445 247.755 307.136 247.567 307.74 247.211C308.344 246.855 308.839 246.344 309.171 245.733C309.611 244.927 309.819 244.018 309.772 243.104C309.725 242.19 309.426 241.306 308.905 240.548L308.905 240.548L308.567 240.096Z" fill="black"/>
<path d="M280.785 237.29H280.785L280.785 237.385C280.56 237.144 280.443 236.824 280.461 236.497C280.48 236.17 280.631 235.864 280.882 235.649L287.067 230.346L274.214 224.4C273.921 224.266 273.695 224.022 273.586 223.723C273.477 223.423 273.495 223.093 273.634 222.806C273.766 222.52 274.009 222.297 274.31 222.189C274.609 222.082 274.942 222.099 275.229 222.236L288.033 228.157V213.888C288.033 213.231 288.574 212.698 289.241 212.698C289.908 212.698 290.449 213.231 290.449 213.888V228.157L303.228 222.236C303.835 221.953 304.56 222.208 304.847 222.806C305.134 223.404 304.874 224.118 304.267 224.4L291.415 230.346L297.527 235.697C297.99 236.167 297.99 236.915 297.527 237.385C297.292 237.64 296.959 237.786 296.609 237.79C296.312 237.795 296.025 237.684 295.812 237.481L289.12 231.606L282.501 237.385C282.282 237.581 281.999 237.691 281.703 237.694C281.354 237.691 281.021 237.545 280.785 237.29Z" fill="black"/>
</g>
<line id="Line 211" x1="287.5" y1="1.5" x2="287.5" y2="171.5" stroke="black" stroke-linecap="round"/>
<circle id="Ellipse 24" cx="288.792" cy="231.189" r="59.1321" stroke="black"/>
</g>
<g id="cradle-3">
<g id="Vector_2">
<path d="M435.581 248.036C436.998 244.413 437.815 240.584 438 236.698L437.879 236.699C438.278 229.518 436.811 222.356 433.622 215.905C433.492 215.596 433.24 215.354 432.924 215.238C432.609 215.121 432.26 215.141 431.96 215.293C431.659 215.444 431.436 215.713 431.343 216.035C431.25 216.357 431.295 216.703 431.469 216.991C434.578 223.072 436.054 229.854 435.751 236.675C435.51 240.31 434.693 243.884 433.332 247.264L429.775 256.431C429.547 257.05 429.859 257.738 430.477 257.975C430.62 258.008 430.769 258.008 430.913 257.975C431.414 257.971 431.863 257.666 432.05 257.202H432.049L435.581 248.036Z" fill="black"/>
<path d="M422.47 201.046C423.535 202.107 424.551 203.193 425.518 204.303L425.519 204.303C426.752 205.775 427.889 207.198 428.929 208.718C429.162 208.97 429.277 209.309 429.244 209.65C429.211 209.992 429.034 210.303 428.758 210.506C428.481 210.709 428.131 210.786 427.794 210.716C427.458 210.647 427.167 210.437 426.994 210.141H426.994C425.978 208.79 424.648 207.126 423.704 206.065C422.76 205.003 421.769 203.942 420.753 202.905L414.947 197.067L408.973 202.832C407.957 203.869 406.965 204.931 406.021 205.992C398.217 214.256 393.994 225.254 394.265 236.603C394.483 240.241 395.299 243.819 396.684 247.192L400.24 256.359C400.469 256.978 400.156 257.667 399.538 257.903C399.395 257.936 399.246 257.936 399.103 257.903C398.602 257.9 398.153 257.594 397.966 257.131H397.966L394.435 247.964C393.017 244.341 392.2 240.512 392.016 236.627C391.701 224.648 396.144 213.031 404.376 204.303C405.344 203.193 406.36 202.107 407.424 201.046L414.076 194.34C414.568 193.887 415.327 193.887 415.818 194.34L422.47 201.046Z" fill="black"/>
<path d="M409.786 218.423C409.559 218.197 409.432 217.89 409.432 217.57V217.642C409.412 217.31 409.53 216.984 409.759 216.742C409.988 216.5 410.307 216.363 410.641 216.364H419.252C419.921 216.364 420.462 216.904 420.462 217.57C420.462 218.236 419.921 218.776 419.252 218.776H410.641C410.32 218.776 410.013 218.649 409.786 218.423Z" fill="black"/>
<path d="M426.316 228.039C426.979 228.052 427.513 228.584 427.526 229.245V229.318C427.487 229.955 426.956 230.452 426.316 230.451H417.704C417.384 230.451 417.076 230.324 416.849 230.098C416.622 229.872 416.495 229.565 416.495 229.245C416.495 228.579 417.036 228.039 417.704 228.039H426.316Z" fill="black"/>
<path d="M407.69 233.25H416.302C416.622 233.25 416.93 233.377 417.157 233.603C417.384 233.829 417.511 234.136 417.511 234.456C417.511 234.775 417.384 235.082 417.157 235.309C416.93 235.535 416.622 235.662 416.302 235.662H407.69C407.369 235.662 407.061 235.535 406.835 235.309C406.608 235.082 406.48 234.775 406.48 234.456C406.48 233.79 407.022 233.25 407.69 233.25Z" fill="black"/>
<path d="M402.586 246.517H411.198C411.518 246.517 411.826 246.644 412.053 246.87C412.28 247.096 412.407 247.403 412.407 247.723C412.394 248.384 411.86 248.916 411.198 248.929H402.586C402.265 248.929 401.957 248.802 401.731 248.576C401.504 248.35 401.376 248.043 401.376 247.723C401.376 247.057 401.918 246.517 402.586 246.517Z" fill="black"/>
<path d="M400.787 227.468C400.56 227.242 400.433 226.935 400.433 226.615C400.433 225.949 400.975 225.409 401.643 225.409H410.447C410.768 225.409 411.076 225.536 411.303 225.762C411.53 225.988 411.657 226.295 411.657 226.615C411.644 227.276 411.11 227.808 410.447 227.821H401.643C401.322 227.821 401.014 227.694 400.787 227.468Z" fill="black"/>
<path d="M417.85 209.319C417.85 209.985 417.308 210.525 416.64 210.525H413.979C413.311 210.525 412.77 209.985 412.77 209.319C412.77 208.653 413.311 208.113 413.979 208.113H416.64C417.308 208.113 417.85 208.653 417.85 209.319Z" fill="black"/>
<path d="M427.171 221.316C426.945 221.543 426.637 221.67 426.316 221.67H423.655C423.334 221.67 423.027 221.543 422.8 221.316C422.573 221.09 422.446 220.783 422.446 220.464C422.446 219.798 422.987 219.257 423.655 219.257H426.316C426.979 219.27 427.513 219.803 427.526 220.464C427.526 220.783 427.398 221.09 427.171 221.316Z" fill="black"/>
<path d="M399.699 241.628C399.473 241.401 399.345 241.094 399.345 240.775H399.152C399.155 240.421 399.311 240.086 399.58 239.855C399.848 239.624 400.204 239.52 400.555 239.569H402.974C403.294 239.569 403.602 239.696 403.829 239.922C404.056 240.148 404.183 240.455 404.183 240.775C404.183 241.094 404.056 241.401 403.829 241.628C403.602 241.854 403.294 241.981 402.974 241.981H400.555C400.234 241.981 399.926 241.854 399.699 241.628Z" fill="black"/>
<path d="M424.938 237.663H427.357V237.662C428.025 237.662 428.566 238.203 428.566 238.869C428.566 239.535 428.025 240.075 427.357 240.075H424.938C424.27 240.075 423.728 239.535 423.728 238.869C423.728 238.203 424.27 237.662 424.938 237.662V237.663Z" fill="black"/>
<path d="M406.651 253.15H409.069L408.876 253.149C409.229 253.092 409.589 253.193 409.859 253.426C410.131 253.659 410.284 253.999 410.28 254.355C410.28 254.675 410.152 254.982 409.925 255.208C409.698 255.434 409.391 255.561 409.07 255.561H406.651C406.33 255.561 406.023 255.434 405.796 255.208C405.569 254.982 405.442 254.675 405.442 254.355C405.442 253.689 405.983 253.149 406.651 253.149L406.651 253.15Z" fill="black"/>
<path d="M420.754 249.362H426.172L425.979 249.362C426.332 249.304 426.692 249.406 426.962 249.639C427.233 249.871 427.387 250.212 427.382 250.568C427.382 250.888 427.254 251.194 427.028 251.421C426.801 251.647 426.493 251.774 426.172 251.774H420.754C420.433 251.774 420.125 251.647 419.899 251.421C419.672 251.194 419.544 250.888 419.544 250.568C419.544 249.902 420.086 249.362 420.754 249.362V249.362Z" fill="black"/>
</g>
<line id="Line 212" x1="415.5" y1="1.5" x2="415.5" y2="171.5" stroke="black" stroke-linecap="round"/>
<circle id="Ellipse 25" cx="416.574" cy="231.189" r="59.1321" stroke="black"/>
</g>
<g id="cradle-4">
<g id="Vector_3">
<path d="M544.159 224.987V215.863C544.159 215.198 543.618 214.659 542.951 214.659C542.284 214.659 541.744 215.198 541.744 215.863V224.987C541.744 225.652 542.284 226.191 542.951 226.191C543.618 226.191 544.159 225.652 544.159 224.987Z" fill="black"/>
<path d="M541.744 232.113C541.744 231.448 542.284 230.91 542.951 230.91C543.272 230.91 543.579 231.037 543.805 231.262C544.032 231.488 544.159 231.794 544.159 232.113V261.796C544.159 262.46 543.618 262.999 542.951 262.999C542.284 262.999 541.744 262.46 541.744 261.796V232.113Z" fill="black"/>
<path d="M559.769 234.477C560.869 234.397 561.97 234.62 562.95 235.123L563.047 235.123C564.613 235.88 565.7 237.364 565.947 239.081C566.194 240.799 565.568 242.527 564.278 243.693L556.236 251.18C553.201 253.885 551.448 257.738 551.405 261.796C551.405 262.461 550.864 263 550.198 263C549.531 263 548.99 262.461 548.99 261.796C549.054 257.123 551.046 252.683 554.496 249.519H554.497L562.54 242.032C563.135 241.497 563.477 240.737 563.481 239.938C563.471 239.399 563.312 238.874 563.022 238.42C562.733 237.966 562.323 237.599 561.839 237.361C561.265 237.063 560.62 236.925 559.973 236.963C559.327 237.001 558.703 237.214 558.168 237.578C557.274 238.224 556.218 238.608 555.117 238.689C554.016 238.77 552.915 238.544 551.937 238.035C550.37 237.278 549.283 235.795 549.037 234.077C548.79 232.359 549.414 230.631 550.705 229.465V229.465L562.539 218.439C563.134 217.914 563.476 217.161 563.481 216.369C563.473 215.831 563.316 215.304 563.026 214.85C562.736 214.395 562.325 214.029 561.839 213.793C561.265 213.495 560.62 213.357 559.973 213.395C559.327 213.433 558.702 213.646 558.168 214.01C557.272 214.652 556.214 215.032 555.113 215.109C554.013 215.185 552.913 214.955 551.936 214.443C551.038 214.001 550.284 213.314 549.763 212.462C549.241 211.609 548.973 210.627 548.99 209.628V206.427C548.986 205.375 548.72 204.341 548.216 203.418C547.118 201.559 545.115 200.418 542.951 200.418C540.787 200.418 538.785 201.559 537.686 203.418C537.183 204.341 536.917 205.375 536.913 206.427V209.653C536.93 210.651 536.662 211.633 536.14 212.486C535.618 213.338 534.865 214.026 533.966 214.467C533.005 214.977 531.92 215.21 530.832 215.143C529.745 215.075 528.698 214.708 527.807 214.082C527.268 213.699 526.634 213.472 525.973 213.425C525.313 213.378 524.652 213.514 524.064 213.818C523.578 214.054 523.167 214.419 522.877 214.874C522.587 215.329 522.43 215.855 522.422 216.393C522.427 217.185 522.769 217.938 523.363 218.464L535.295 229.369C536.585 230.534 537.21 232.263 536.963 233.98C536.716 235.698 535.63 237.181 534.063 237.939C533.097 238.436 532.015 238.662 530.931 238.594C529.846 238.526 528.8 238.167 527.904 237.554C527.37 237.162 526.736 236.927 526.073 236.876C525.412 236.825 524.749 236.959 524.161 237.265C523.676 237.503 523.267 237.869 522.977 238.324C522.688 238.778 522.529 239.303 522.518 239.841C522.522 240.64 522.865 241.4 523.46 241.935H523.46L531.503 249.422C534.978 252.609 536.972 257.089 537.01 261.796C537.01 262.461 536.469 263 535.802 263C535.135 263 534.594 262.461 534.594 261.796C534.552 257.738 532.799 253.885 529.764 251.18L521.721 243.693C520.431 242.527 519.806 240.799 520.053 239.081C520.3 237.363 521.386 235.88 522.953 235.123C523.919 234.626 525.001 234.4 526.086 234.468C527.17 234.535 528.216 234.895 529.112 235.507C529.646 235.9 530.28 236.135 530.942 236.186C531.604 236.237 532.267 236.102 532.856 235.797C533.341 235.561 533.752 235.195 534.042 234.74C534.332 234.285 534.49 233.759 534.498 233.22C534.49 232.422 534.149 231.663 533.556 231.126L521.721 220.124C520.431 218.959 519.806 217.231 520.053 215.513C520.3 213.795 521.386 212.312 522.953 211.554C523.915 211.045 525 210.811 526.087 210.879C527.174 210.947 528.221 211.314 529.112 211.939C529.65 212.324 530.283 212.554 530.944 212.605C531.603 212.656 532.264 212.525 532.856 212.228C533.34 211.984 533.749 211.613 534.038 211.155C534.328 210.697 534.486 210.169 534.498 209.628V206.426C534.498 204.979 534.863 203.555 535.56 202.285C536.555 200.543 538.137 199.207 540.026 198.517C541.915 197.828 543.988 197.828 545.877 198.517C547.766 199.207 549.348 200.543 550.342 202.285C551.039 203.555 551.405 204.979 551.405 206.426V209.628C551.417 210.169 551.575 210.697 551.865 211.155C552.154 211.613 552.563 211.984 553.047 212.228C553.622 212.529 554.269 212.665 554.917 212.623C555.565 212.58 556.188 212.361 556.718 211.988C557.617 211.351 558.673 210.974 559.773 210.897C560.872 210.82 561.972 211.048 562.95 211.554C564.516 212.312 565.603 213.795 565.85 215.513C566.097 217.231 565.472 218.959 564.182 220.124L552.347 231.126C551.754 231.663 551.412 232.422 551.405 233.22C551.413 233.759 551.57 234.285 551.86 234.74C552.151 235.195 552.561 235.561 553.047 235.797C553.621 236.095 554.267 236.233 554.913 236.195C555.559 236.157 556.184 235.944 556.719 235.58C557.615 234.939 558.67 234.558 559.769 234.477Z" fill="black"/>
</g>
<line id="Line 213" x1="543.5" y1="1.5" x2="543.5" y2="171.5" stroke="black" stroke-linecap="round"/>
<circle id="Ellipse 26" cx="544.358" cy="231.189" r="59.1321" stroke="black"/>
</g>
<g id="cradle-5">
<path id="Vector_4" d="M687.011 207.067V199.295C687.011 198.65 686.508 198.119 685.87 198.093L687.011 207.067ZM687.011 207.067C686.987 207.069 686.963 207.071 686.939 207.072L687.011 208.07H688.011V208.018C688.881 207.99 689.753 208.008 690.622 208.07L687.011 207.067ZM686.011 208.07V209.144L687.082 209.067C688.237 208.985 689.396 208.985 690.551 209.067L690.925 209.094C690.927 209.095 690.928 209.096 690.93 209.098L690.93 209.098C690.974 209.136 691.001 209.194 691 209.257L691 209.257V209.271V234.104C691 237.835 689.829 241.011 687.623 243.541C685.408 246.082 682.097 248.033 677.726 249.196L676.394 249.551L677.145 250.707C678.757 253.19 681.498 254.692 684.444 254.696H684.446C684.491 254.696 684.537 254.714 684.574 254.751C684.611 254.789 684.633 254.842 684.633 254.898C684.633 254.956 684.611 255.008 684.575 255.045C684.538 255.081 684.494 255.099 684.45 255.1C682.668 255.073 680.93 254.532 679.438 253.542C678.001 252.586 676.85 251.251 676.109 249.68V249.369V249.315V249.206V249.153V249.148C679.26 248.414 682.772 247.121 685.531 244.807C688.381 242.416 690.387 238.963 690.387 234.08V210.449V209.462L689.399 209.449C685.365 209.398 681.39 210.425 677.874 212.424L677.874 212.424C674.358 214.424 671.427 217.325 669.375 220.835L669.303 220.959L669.268 221.099C669.27 221.09 669.268 221.097 669.259 221.119C669.071 221.6 666.031 229.386 651.349 229.787L650.36 229.814L650.376 230.803C650.448 235.345 650.964 239.052 652.744 242.006C654.548 245.003 657.552 247.069 662.237 248.567L662.247 248.57L662.256 248.573L662.653 248.691C662.8 248.738 662.948 248.783 663.096 248.827H661.971H661.965C656.834 247.127 653.921 244.818 652.24 241.803C650.516 238.709 650 234.722 650 229.489C650 229.366 650.095 229.287 650.188 229.287H651.188V229.275C658.357 229.107 662.765 227.138 665.418 225.073C666.8 223.998 667.685 222.913 668.23 222.08C668.502 221.663 668.689 221.31 668.811 221.054C668.872 220.925 668.916 220.821 668.947 220.744C668.953 220.729 668.959 220.714 668.964 220.701C669.331 220.043 669.729 219.403 670.158 218.784L670.585 218.166L670.112 217.584C666.777 213.483 663.73 211.274 660.635 210.117C657.561 208.968 654.534 208.897 651.376 208.897H650.376V209.897V221.917C650.376 222.039 650.28 222.119 650.188 222.119C650.095 222.119 650 222.039 650 221.917V208.622C650 208.5 650.095 208.42 650.188 208.42H650.687H650.727L650.768 208.417C654.984 208.076 659.216 208.872 663.031 210.724L663.905 211.148L664.354 210.287C665.296 208.481 666.515 206.839 667.966 205.421C670.32 203.142 673.127 201.399 676.198 200.307C679.271 199.215 682.538 198.8 685.782 199.089L685.806 199.091L685.83 199.092C685.92 199.096 686.011 199.175 686.011 199.294V199.295V208.07ZM669.225 249.864C669.265 249.866 669.306 249.883 669.338 249.918C669.369 249.954 669.386 250.003 669.383 250.053L669.381 250.084V250.115V250.259V261.798C669.381 261.921 669.286 262 669.193 262C669.101 262 669.006 261.921 669.006 261.798V251.004V250.098L668.104 250.009C666.93 249.893 665.763 249.707 664.611 249.451L663.856 249.284L663.504 249.972C662.727 251.492 661.555 252.766 660.115 253.656L660.115 253.656C658.677 254.546 657.026 255.021 655.342 255.028C655.296 255.028 655.25 255.01 655.215 254.974C655.178 254.937 655.156 254.884 655.156 254.826C655.156 254.704 655.251 254.625 655.343 254.625L655.348 254.625C658.413 254.61 661.246 252.984 662.829 250.34L663.643 248.982C665.463 249.477 667.332 249.773 669.216 249.864L669.216 249.864L669.225 249.864Z" fill="white" stroke="black" stroke-width="2"/>
<line id="Line 214" x1="671.5" y1="1.5" x2="671.5" y2="171.5" stroke="black" stroke-linecap="round"/>
<circle id="Ellipse 27" cx="672.141" cy="231.189" r="59.1321" stroke="black"/>
</g>
</g>
<g id="cradle-stem">
<path id="Vector_5" d="M896.035 205.465L889.84 194.735L899.852 171.829C900.141 171.166 899.836 170.401 899.171 170.123C898.506 169.844 897.732 170.157 897.443 170.821L897.442 170.82L888.234 191.793L882.026 181.041L888.803 163.452C888.962 162.807 888.609 162.151 887.982 161.93C887.356 161.708 886.655 161.991 886.354 162.587L886.354 162.587L880.386 178.36L875.1 169.204L879.335 157.762C879.592 157.083 879.248 156.335 878.568 156.09C877.888 155.845 877.129 156.195 876.874 156.873L873.409 166.222L867.759 156.437C867.587 156.139 867.302 155.922 866.966 155.835C866.63 155.747 866.271 155.797 865.968 155.971C865.337 156.336 865.117 157.134 865.475 157.755L871.216 167.698L861.091 165.985C860.75 165.922 860.396 165.999 860.109 166.199C859.823 166.398 859.628 166.703 859.57 167.043C859.445 167.756 859.916 168.43 860.629 168.561L872.839 170.51L878.138 179.687L860.304 177.387C859.628 177.384 859.049 177.881 858.953 178.545C858.858 179.211 859.275 179.836 859.927 180.004L859.926 180.003L879.683 182.574L885.877 193.304L862.147 191.289C861.422 191.227 860.776 191.761 860.704 192.482C860.67 192.828 860.775 193.172 860.997 193.437C861.219 193.703 861.539 193.869 861.888 193.898L861.887 193.898L887.484 196.035L893.679 206.765L873.578 205.654C872.848 205.612 872.213 206.166 872.161 206.892C872.11 207.617 872.659 208.24 873.39 208.282L895.144 209.459L899.04 216.207C899.398 216.828 900.2 217.036 900.831 216.672C901.134 216.497 901.356 216.211 901.449 215.877C901.541 215.542 901.496 215.186 901.324 214.888L897.519 208.297L906.61 189.073C906.918 188.414 906.634 187.638 905.974 187.34C905.314 187.041 904.529 187.334 904.219 187.993L904.22 187.993L896.035 205.465Z" fill="black"/>
<line id="Line 217" x1="768.085" y1="1.3429" x2="851.164" y2="136.312" stroke="black" stroke-linecap="round"/>
<circle id="Ellipse 30" cx="882.691" cy="186.816" r="59.1321" transform="rotate(-21.4515 882.691 186.816)" stroke="black"/>
</g>
<g id="cradle-leaf">
<line id="Line 218" x1="194.462" y1="1.86966" x2="107.69" y2="137.847" stroke="black" stroke-linecap="round"/>
<circle id="Ellipse 31" r="59.1321" transform="matrix(-0.930727 -0.365714 -0.365714 0.930727 78.0084 189.139)" stroke="black"/>
<path id="Vector_6" d="M66.5461 219.229L77.596 215.5L77.549 215.39C82.4996 213.642 86.7874 210.366 89.7946 206.032C92.8015 201.698 94.373 196.53 94.2841 191.271L94.2839 191.27L94.1816 161.104L94.2419 161L94.1524 160.726L93.9443 160.466L93.4486 160.18C93.2256 160.13 92.9921 160.151 92.7806 160.24L66.6052 175.234C62.0202 177.848 58.3666 181.854 56.1746 186.672C53.9825 191.489 53.3653 196.869 54.4118 202.031L56.7657 213.556C56.8303 213.89 57.034 214.179 57.3247 214.352C57.5758 214.504 57.8777 214.548 58.1636 214.474C58.4726 214.4 58.7385 214.2 58.8983 213.923C59.0582 213.646 59.0979 213.317 59.0078 213.012L56.7329 201.589C55.7837 196.915 56.3412 192.044 58.325 187.682C60.3085 183.32 63.6159 179.693 67.7674 177.325L90.1035 164.543L85.6897 172.188L84.6567 171.592C84.0863 171.262 83.3538 171.463 83.0208 172.04C82.6879 172.616 82.8804 173.351 83.4508 173.68L84.4837 174.277L80.8659 180.543L76.7342 178.158C76.1638 177.828 75.4313 178.029 75.0983 178.606C74.7653 179.182 74.9578 179.917 75.5283 180.246L79.66 182.632L76.0422 188.898L68.8117 184.723C68.2412 184.394 67.5087 184.595 67.1758 185.171C66.8428 185.748 67.0353 186.483 67.6057 186.812L74.8362 190.987L71.2184 197.253L67.0867 194.868C66.5163 194.538 65.7838 194.739 65.4508 195.316C65.1178 195.892 65.3103 196.627 65.8808 196.956L70.0125 199.342L66.3947 205.608L63.2959 203.819C62.7255 203.49 61.9929 203.69 61.66 204.267C61.327 204.844 61.5195 205.578 62.0899 205.908L65.1887 207.697L60.9679 215.007C60.635 215.584 60.8275 216.319 61.3979 216.648C61.9683 216.977 62.7008 216.777 63.0338 216.2L67.327 208.764L70.4258 210.553C70.9962 210.882 71.7287 210.682 72.0617 210.105C72.3947 209.528 72.2021 208.794 71.6317 208.464L68.5329 206.675L72.1508 200.409L76.2825 202.794C76.8529 203.124 77.5854 202.923 77.9184 202.346C78.2513 201.77 78.0588 201.035 77.4884 200.706L73.3567 198.32L76.9745 192.054L84.205 196.229C84.7754 196.558 85.5079 196.357 85.8409 195.781C86.1739 195.204 85.9813 194.469 85.4109 194.14L78.1804 189.965L81.7983 183.699L85.93 186.084C86.5004 186.414 87.2329 186.213 87.5659 185.636C87.8988 185.06 87.7063 184.325 87.1359 183.996L83.0042 181.61L86.622 175.344L87.6549 175.94C88.2253 176.27 88.9579 176.069 89.2908 175.492C89.6238 174.916 89.4313 174.181 88.8609 173.852L87.8277 173.256L92.2536 165.59L92.3405 191.345C92.3659 196.124 90.8781 200.802 88.0923 204.701C85.3062 208.6 81.3668 211.518 76.8443 213.033L65.8956 217.016C65.5867 217.09 65.3203 217.29 65.1605 217.567C65.0006 217.843 64.9611 218.174 65.0515 218.478C65.1303 218.763 65.3191 219.002 65.5764 219.143C65.8715 219.309 66.2237 219.34 66.5458 219.23L66.5461 219.229Z" fill="black"/>
</g>
</g>
</svg>
